<svg width="162" height="107" viewBox="0 0 162 107" fill="none" xmlns="http://www.w3.org/2000/svg">
<path d="M51.1199 23.4572C50.1415 24.595 49.0296 25.3828 47.7398 25.8204C46.9837 26.083 46.2276 26.3456 45.3826 26.3018C44.0038 26.2581 42.9364 25.6016 42.5806 24.1137C42.4027 23.3697 42.803 22.4506 43.648 21.9255C43.8259 21.7942 44.0038 21.7067 44.1817 21.6191C44.6265 23.501 47.0726 24.1574 48.6738 23.9824C49.4743 23.8948 50.2304 23.7198 51.1199 23.4572Z" fill="#C9B44A"/>
<path d="M130.732 25.6459C128.908 25.1207 127.04 24.7706 125.172 24.5518C122.949 24.333 120.725 24.333 118.501 24.8144C116.811 25.2082 115.299 25.8209 113.876 26.7837C110.495 29.1032 109.561 32.3854 109.917 36.2366C110.051 37.637 110.406 38.9937 110.851 40.3504C111.251 41.5757 111.563 42.8449 111.741 44.114C112.008 45.6457 112.185 47.1775 111.83 48.7529C111.652 49.5407 111.385 50.2847 110.584 50.6348C109.739 51.0724 108.939 50.7661 108.138 50.4597C107.16 50.1096 106.448 49.3656 105.781 48.6217C104.313 46.9586 102.846 45.2956 101.111 43.8514C100.177 43.0637 99.332 42.2322 98.2201 41.6633C96.8414 40.9193 95.3292 40.5254 93.7281 40.4379C92.127 40.3504 90.5703 40.4817 89.0137 40.7442C87.7684 40.9631 86.5675 41.2694 85.3222 41.6195C83.81 42.0571 82.2979 42.5823 80.8302 43.0637C79.9407 43.3263 79.0956 43.6326 78.2061 43.8077C76.9163 43.9827 75.671 43.8514 74.4702 43.4576C73.7141 43.2388 73.0025 42.9324 72.4243 42.3635C72.1574 42.1009 72.024 41.8383 72.113 41.4882C72.2019 41.1381 72.5132 41.0506 72.8246 41.0068C73.803 40.8318 74.826 40.7005 75.8044 40.3504C76.4716 40.1316 77.1832 39.869 77.8503 39.5626C77.8058 39.4313 77.7169 39.4313 77.6724 39.4313C76.8718 39.2563 76.0268 39.125 75.2262 38.9499C73.7586 38.6436 72.3353 38.3373 70.9121 37.8559C70.2895 37.637 69.6668 37.4182 69.1776 36.9368C68.5994 36.3679 68.6883 35.7552 69.3555 35.3613C70.245 34.8362 71.2234 34.7049 72.2019 34.5736C73.4028 34.3985 74.6036 34.3548 75.8489 34.3548C76.6939 34.3548 77.5835 34.311 78.4285 34.2673C78.2951 34.1797 78.1616 34.0922 78.0282 34.0922C77.0942 33.9609 76.2047 33.6983 75.3152 33.392C74.5591 33.1294 73.803 32.7793 73.2693 32.1229C72.7356 31.5102 73.0914 31.0725 73.5362 30.7662C73.7141 30.6787 73.9365 30.6349 74.1588 30.5474C75.1818 30.2848 76.2492 30.1973 77.3166 30.1535C79.5404 30.0222 81.7642 29.9784 84.0324 29.9784C84.3882 29.9784 84.744 29.9784 85.0998 29.9784C83.9879 29.7159 82.876 29.5408 81.7642 29.322C80.7412 29.1469 79.7183 28.9281 78.7398 28.7531C77.8503 28.578 77.0053 28.3592 76.2047 28.0091C76.0713 27.9653 75.8934 27.9653 75.8934 27.7903C75.8934 27.6152 76.0713 27.4839 76.2492 27.3964C76.3381 27.3526 76.4716 27.3526 76.5605 27.3526C77.0497 27.3526 77.5835 27.3964 78.0727 27.3964C78.6953 27.3964 79.318 27.3964 80.0296 27.3964C79.2735 26.74 78.5174 26.1273 77.7614 25.4708C77.6279 25.3395 77.4945 25.252 77.539 25.0769C77.6279 24.9019 77.7614 24.8144 77.9837 24.8144C79.6293 24.6831 81.2304 24.5956 82.876 24.4643C83.5877 24.4205 84.2548 24.333 85.0109 24.2892C84.833 24.1579 84.6106 24.2017 84.4327 24.1579C83.0095 24.0266 81.6307 23.8516 80.252 23.6328C79.1401 23.4577 78.0282 23.2389 76.9163 22.9763C75.9379 22.7575 74.9149 22.5824 74.0699 22.0135C73.4917 21.6196 73.3583 21.2695 73.6696 20.6131C74.2033 19.5628 75.1818 19.0814 76.2047 18.6875C77.8058 18.1186 79.4514 17.856 81.1415 17.8122C81.3194 17.8122 81.5418 17.8122 81.6752 17.7247C81.1415 17.6372 80.5633 17.5496 79.9851 17.4184C78.5174 17.112 77.0497 16.7181 75.6265 16.193C74.4257 15.7553 73.2693 15.2739 72.2909 14.3987C71.5793 13.7422 71.6237 12.9545 72.4243 12.3856C73.6696 11.5103 75.0928 11.0727 76.516 10.635C76.9608 10.5037 77.45 10.3724 78.0282 10.1974C77.4945 10.0223 77.0942 9.93482 76.6495 9.80352C75.6265 9.45342 74.6481 9.01578 73.892 8.22804C73.2248 7.52783 73.4028 6.78385 74.2923 6.47751C74.737 6.30245 75.2262 6.25869 75.671 6.21493C76.8274 6.08364 77.9393 5.99611 79.0956 6.03987C79.1846 6.03987 79.2735 6.08364 79.3625 5.95235C79.0067 5.82106 78.6953 5.68977 78.3395 5.55848C77.45 5.20837 76.5605 4.8145 75.8489 4.11428C75.3152 3.54536 75.3152 2.84515 75.8934 2.31999C76.3826 1.83859 77.0497 1.66354 77.7169 1.57601C78.1616 1.53224 78.6509 1.48848 79.1401 1.48848C78.9177 1.44472 78.6953 1.31343 78.5174 1.26966C76.6495 0.875794 74.826 0.481924 72.958 0.263107C71.09 0.0442898 69.222 -0.130764 67.3541 0.131817C66.6425 0.263107 65.8864 0.394397 65.3527 0.919558C64.7745 1.44472 64.3297 2.01364 63.9739 2.71386C63.2623 3.98299 62.862 5.33966 62.9065 6.78385C62.951 7.35278 63.1289 7.9217 63.2178 8.49062C63.3513 9.45342 63.2623 9.97858 62.1504 10.2849C61.6167 10.4162 61.083 10.3724 60.5493 10.46C59.5709 10.5913 58.5479 10.5037 57.6139 10.7226C56.9468 10.8538 56.3686 11.1164 55.9239 11.6854C55.3902 12.4293 55.3012 13.3046 55.3902 14.1799C55.4346 14.5737 55.3012 14.8801 54.9899 15.1427C54.2338 15.7553 53.4777 16.3243 52.6771 16.8494C52.0545 17.2871 51.4318 17.6372 50.6313 17.7247C50.0976 17.8122 49.7862 18.2061 49.6973 18.775C49.5639 19.6065 49.4749 20.438 49.3415 21.2695C49.297 21.5321 49.386 21.6196 49.6083 21.6634C50.2755 21.7509 50.8981 21.926 51.5653 21.8385C52.4548 21.7072 53.2553 21.4008 53.6111 20.4818C53.7446 20.0879 53.9669 19.6941 54.3672 19.4315C55.1233 18.9501 55.9239 18.775 56.8134 18.7313C56.9468 18.7313 57.0802 18.8188 57.1692 18.9063C57.3026 19.0376 57.3026 19.1251 57.1247 19.2127C56.8134 19.3439 56.591 19.519 56.3241 19.7378C55.4791 20.438 54.6785 21.182 54.1893 22.1448C53.789 22.9325 53.9225 23.3702 54.6785 23.764C55.0788 23.9829 55.4791 24.1142 55.8794 24.2454C56.591 24.4643 57.525 23.8953 57.6139 23.1514C57.7474 22.2761 57.8808 21.4008 58.2366 20.5693C58.459 20.0442 58.8592 19.7816 59.393 19.7378C60.0156 19.694 60.6827 19.9129 61.1275 20.5693C61.6167 21.2258 61.5723 21.926 61.172 22.6262C60.5493 23.7203 59.5709 24.4643 58.5924 25.1645C56.6355 26.6087 54.5006 27.834 52.5437 29.322C51.4763 30.1535 50.4534 31.0288 49.6528 32.1229C49.1191 32.8231 48.9412 33.5233 49.1636 34.3985C49.2525 34.7924 49.4749 35.0988 49.7418 35.4051C49.386 35.4926 49.0746 35.4051 48.7633 35.4926C47.5625 35.799 46.495 36.3679 45.5166 37.1119C44.8939 37.5933 44.3602 38.1622 44.4047 39.0375C44.4047 39.2125 44.3157 39.2563 44.1378 39.3C43.871 39.3438 43.6486 39.3438 43.3818 39.3C42.6701 39.125 41.9585 38.9937 41.2914 38.8186C40.0906 38.5123 38.9342 38.2497 37.7334 37.9434C37.0662 37.7683 36.5325 37.8996 35.9543 38.206C34.3977 39.125 32.8855 40.0878 31.4178 41.0943C30.6173 41.6633 29.8612 42.3197 29.4164 43.195C28.9717 44.0265 28.8382 44.9018 29.2385 45.777C30.3059 45.0331 31.3733 44.3328 32.3963 43.6764C32.6187 43.5451 32.7076 43.4138 32.6631 43.1512C32.6187 42.7574 32.6187 42.3197 32.5742 41.9259C32.5742 41.707 32.6631 41.5757 32.841 41.4445C33.2858 41.2256 33.6861 40.9631 34.1753 40.788C36.1322 39.9565 38.1336 39.6064 40.0461 40.8755C42.2699 42.3635 43.782 44.2891 43.5597 47.1337C43.4262 48.5779 42.5812 49.7157 41.158 50.2847C39.6458 50.8973 38.0002 50.9849 36.4436 51.2475C35.643 51.3787 34.9759 51.6413 34.3532 52.1665C33.2413 53.1293 32.6187 54.3109 32.4852 55.7551C32.3963 56.7616 32.6187 57.7244 33.3303 58.5122C34.709 59.9126 36.4436 60.4815 38.356 60.2627C39.7792 60.0877 40.8022 59.3437 41.3359 58.0308C41.5583 57.4619 41.4693 56.8929 40.9801 56.5428C40.7132 56.324 40.4019 56.2365 40.0461 56.3678C39.6903 56.4553 39.7792 56.7616 39.6903 56.9805C39.6013 57.2868 39.4679 57.5494 39.29 57.7682C38.6673 58.4684 37.6889 58.5559 36.7549 58.1621C34.8869 57.3743 34.4866 55.58 35.1093 53.917C35.5096 52.8667 36.3546 52.254 37.3331 51.8164C38.9342 51.0724 40.6687 50.7223 42.4033 50.3284C44.2713 49.8908 44.9384 49.1468 44.9384 47.265C44.9384 46.2147 44.5826 45.2956 44.2268 44.3328C44.1823 44.1578 44.0044 44.0265 44.2713 43.8952C44.5381 43.8077 44.6271 43.9827 44.6715 44.1578C45.0718 45.0768 45.6055 45.9083 46.0948 46.7836C47.0287 48.4028 48.4075 49.4094 50.231 49.847C50.5868 49.9346 50.7202 50.1971 50.6757 50.5472C50.6313 50.7223 50.5868 50.8536 50.4978 51.0286C50.0086 52.3853 49.6973 53.8295 49.9641 55.2299C50.0976 55.9739 49.7862 56.2365 49.297 56.4991C49.2525 56.5428 49.1636 56.5866 49.1191 56.5866C47.6959 57.243 46.6729 58.2496 45.8279 59.5187C45.6945 59.7376 45.65 59.8688 45.8279 60.0877C47.518 62.4946 48.9857 65.0767 50.6313 67.4837C51.165 68.2276 51.8321 68.7528 52.855 68.7528C53.5222 68.7528 54.1893 68.9716 54.812 69.278C55.2567 69.4968 55.7015 69.8031 56.1907 70.0657C56.1462 69.3655 55.9683 68.709 55.6125 68.1401C55.2567 67.5712 54.812 67.046 54.3672 66.5209C53.878 65.9957 53.878 65.9957 53.2108 66.2145C53.0774 66.2583 52.944 66.3021 52.8106 66.3458C52.099 66.6084 51.4763 66.3896 51.1205 65.7331C50.3644 64.3765 49.5639 62.976 48.8078 61.6194C48.6299 61.313 48.4964 60.9629 48.5854 60.6128C48.8078 59.65 49.208 58.8623 50.0976 58.3371C50.9426 57.8557 51.8321 57.5056 52.7661 57.2868C54.3672 56.8929 55.9239 56.7616 57.525 57.1993C58.5924 57.4619 59.393 58.0745 59.7488 59.1249C59.9267 59.6938 60.0156 60.3502 60.0601 60.9629C60.2825 62.8448 60.5048 64.7266 60.9941 66.6084C61.3054 67.8338 61.8836 68.9279 62.9065 69.7594C64.0629 70.7222 65.4416 71.2473 66.9983 71.2911C68.7328 71.3786 70.245 70.8534 71.3124 69.453C71.9351 68.6653 72.2019 67.7463 71.8016 66.7835C71.3569 65.6018 70.4229 64.8579 69.1331 64.7703C68.466 64.7266 67.8433 64.9016 67.2651 65.383C67.7988 65.4268 68.2436 65.5581 68.5994 65.8207C69.2665 66.2145 69.6668 66.8272 69.6223 67.615C69.5779 68.4465 68.9997 68.8841 68.1991 69.1467C67.443 69.3655 66.6869 69.3217 65.9753 69.1029C64.8634 68.7966 64.0184 68.1839 63.4847 67.1336C62.9065 65.9957 62.6397 64.7266 62.3728 63.5012C62.0615 61.882 61.6167 60.3502 61.083 58.8185C60.9496 58.3809 60.8606 57.987 60.9051 57.5494C60.9941 56.8492 61.4833 56.4991 62.1504 56.6741C62.3728 56.7179 62.6397 56.8054 62.862 56.8929C63.9295 57.1993 64.9524 57.5056 66.0643 57.6807C67.0872 57.812 68.1546 57.812 69.1776 57.8557C71.0011 57.8995 72.8246 57.8995 74.6481 57.7244C75.4931 57.6369 75.8044 57.812 76.0713 58.5997C76.0713 58.6435 76.1158 58.6872 76.1602 58.731C77.3611 61.2693 79.0511 63.4137 81.3194 65.1204C82.2089 65.8207 83.2318 66.3021 84.3437 66.4771C84.7885 66.5209 85.2332 66.4333 85.767 66.6959C85.5001 66.7835 85.3222 66.871 85.0998 66.9147C83.899 67.2649 82.7426 67.5712 81.5418 67.9651C80.0741 68.4027 78.6509 68.9279 77.1832 69.3655C76.0713 69.7156 75.0039 70.197 74.1588 71.0285C73.4028 71.7725 73.0469 72.6478 73.0469 73.6981C73.0469 73.9606 73.0914 74.0482 73.4028 73.9169C74.6925 73.4355 75.9823 72.9541 77.2721 72.4727C77.45 72.3852 77.539 72.2976 77.5835 72.0788C77.7169 70.7222 78.6064 69.9344 79.8517 69.5406C81.5863 68.9716 83.3653 68.9716 85.1888 68.9716C86.6565 68.9716 88.1242 69.1029 89.5474 69.3217C90.8816 69.5406 92.2604 69.7594 93.5057 70.3721C95.1958 71.1598 96.1742 72.3852 96.0853 74.2232C96.0853 74.9672 95.8184 75.7112 95.1513 76.1926C94.7955 76.4114 94.4842 76.4989 94.0394 76.3239C93.5947 76.1488 93.2833 75.7987 93.061 75.4048C92.972 75.2298 92.883 75.1423 92.7496 75.3611C92.4828 75.7987 92.3049 76.2363 92.4383 76.7615C92.7496 77.7681 93.7281 78.4245 94.8844 78.4683C96.0853 78.512 96.9303 77.7243 97.2416 76.8053C97.6419 75.7112 97.464 74.5733 97.1527 73.4793C96.7969 72.2101 96.1298 71.116 95.0623 70.2408C94.8844 70.1095 94.8844 69.9782 95.0623 69.8907C95.3737 69.6718 95.5071 69.3655 95.5071 69.0154C95.5961 68.4902 95.685 68.0088 95.8629 67.5274C96.3077 66.3896 96.7969 66.1708 97.7754 66.4771C99.0651 66.871 99.9991 67.7463 100.577 68.9716C101.111 70.0219 101.333 71.2036 102.089 72.2101C102.579 72.8666 102.846 73.6981 103.379 74.3545C104.269 75.4486 105.514 75.9738 106.759 76.4989C108.494 77.1991 110.006 78.1619 110.762 80C111.385 79.1685 111.296 78.337 111.074 77.4617C110.807 76.4989 110.273 75.7112 109.517 75.011C108.716 74.3108 108.138 73.4355 107.604 72.4727C107.56 72.5602 107.516 72.604 107.471 72.6478C107.071 73.1292 106.67 73.6105 106.003 73.6981C105.158 73.8294 104.58 73.348 104.135 72.7353C103.513 71.86 103.246 70.8972 103.201 69.8469C103.157 69.2342 103.157 68.5778 103.379 67.9651C103.78 66.9585 104.491 66.0832 105.336 65.383C106.804 64.1577 108.494 63.2386 110.406 62.7572C111.785 62.4071 113.208 62.2758 114.587 62.801C116.277 63.4574 117.211 65.5581 116.722 66.8272C116.366 67.79 115.788 67.9213 114.898 67.6587C114.187 67.4399 113.876 66.8272 113.698 66.127C113.653 65.952 113.653 65.8644 113.431 65.9957C112.942 66.2583 112.586 66.6522 112.541 67.2211C112.497 67.8775 112.808 68.4027 113.342 68.709C114.365 69.3217 115.432 69.4968 116.633 69.1904C117.789 68.8841 118.812 67.7025 118.901 66.5209C118.99 65.0767 118.412 63.9388 117.478 62.9323C116.455 61.8382 115.121 61.1817 113.698 60.7441C112.319 60.3065 110.94 60.0877 109.517 60.3502C108.449 60.5253 108.494 60.1752 108.361 59.4312C108.361 59.3874 108.361 59.2999 108.361 59.2561C108.316 59.0373 108.361 58.9936 108.583 58.9498C109.383 58.8185 110.14 58.5997 110.94 58.5122C111.563 58.4246 112.185 58.2058 112.808 58.5122C113.119 58.6435 113.475 58.7748 113.831 58.8623C115.343 59.3874 116.9 59.6063 118.456 59.7813C118.99 59.8251 119.568 59.7813 120.147 59.7813C118.857 59.3874 117.567 58.9936 116.277 58.4684C115.521 58.1621 114.809 57.8557 114.231 57.2868C113.787 56.8492 113.698 56.3678 114.053 55.9739C114.276 55.7551 114.587 55.6238 114.943 55.6238C116.455 55.58 117.878 56.0614 119.346 56.1927C120.769 56.2802 122.148 56.4553 123.571 56.4991C123.393 56.4553 123.304 56.324 123.126 56.2802C121.392 55.7551 119.746 55.0549 118.234 54.0921C117.656 53.742 117.167 53.3481 116.811 52.7354C116.411 52.0352 116.944 51.4225 117.523 51.2912C118.501 50.9849 119.435 51.1599 120.369 51.3787C121.436 51.5976 122.504 51.8164 123.616 51.9914C124.728 52.1665 125.795 52.4291 126.862 52.5166C126.818 52.4728 126.773 52.4291 126.729 52.4291C125.217 51.9477 123.749 51.3787 122.281 50.7223C121.57 50.3722 120.858 50.0221 120.369 49.4094C119.835 48.7967 120.013 48.184 120.68 47.8777C121.081 47.7026 121.481 47.6151 121.926 47.5713C122.949 47.5276 123.971 47.7026 124.95 47.7901C125.706 47.8777 126.462 47.9214 127.218 48.0527C127.796 48.1403 128.419 48.1403 129.042 48.2278C128.641 48.0527 128.286 47.9214 127.885 47.7901C125.662 47.0024 123.482 46.2147 121.392 45.1206C120.547 44.6829 119.702 44.1578 119.124 43.37C118.679 42.7136 118.723 42.1009 119.257 41.6195C119.568 41.3132 119.969 41.1819 120.369 41.0506C121.17 40.8318 121.97 40.8318 122.771 40.8755C124.816 40.8755 126.818 41.0068 128.819 41.2256C129.042 41.2256 129.22 41.2256 129.442 41.2256C127.129 40.4379 124.816 39.6502 122.637 38.6436C121.57 38.1622 120.591 37.5495 119.969 36.543C119.168 35.2738 119.479 33.8734 120.725 33.0856C121.303 32.7355 121.97 32.5167 122.682 32.5167C124.772 32.5167 126.862 32.7793 128.953 33.1294C129.486 33.2169 130.065 33.2607 130.643 33.3482C129.531 32.7793 128.419 32.2979 127.352 31.729C126.24 31.1601 125.172 30.5474 124.327 29.5846C123.438 28.578 123.616 27.7465 124.728 27.0901C125.439 26.6524 126.24 26.4774 127.085 26.4336C128.908 26.3461 130.776 26.3461 132.555 26.74C132.689 26.7837 132.822 26.7837 133 26.6962C132.377 26.1273 131.532 25.8647 130.732 25.6459ZM121.303 28.7531C121.125 28.7531 120.947 28.7093 120.814 28.578L115.388 33.392C115.477 33.5233 115.521 33.6546 115.521 33.8296C115.521 34.1797 115.299 34.4861 114.943 34.6174L116.811 47.8777C117.256 47.9214 117.611 48.2715 117.611 48.7092C117.611 49.1468 117.256 49.5407 116.766 49.5407C116.5 49.5407 116.277 49.4094 116.099 49.2343L106.448 54.2671C106.448 54.3547 106.493 54.3984 106.493 54.4859C106.493 54.9236 106.137 55.3175 105.648 55.3175C105.203 55.3175 104.847 54.9673 104.802 54.5735L94.1728 53.3043C94.1284 53.3919 94.0839 53.4794 94.0394 53.5232L102.623 62.9323C102.757 62.8448 102.89 62.801 103.068 62.801C103.513 62.801 103.913 63.1511 103.913 63.6325C103.913 64.0701 103.557 64.464 103.068 64.464C102.623 64.464 102.223 64.1139 102.223 63.6325C102.223 63.4574 102.267 63.2824 102.401 63.1511L93.817 53.742C93.6836 53.8295 93.5502 53.8733 93.3723 53.8733C93.3278 53.8733 93.2833 53.8733 93.2833 53.8733L89.3695 65.0767C89.6363 65.208 89.7698 65.4706 89.7698 65.7769C89.7698 66.2145 89.414 66.6084 88.9247 66.6084C88.48 66.6084 88.0797 66.2583 88.0797 65.7769C88.0797 65.3393 88.4355 64.9454 88.9247 64.9454C88.9692 64.9454 89.0137 64.9454 89.0137 64.9454L92.9275 53.742C92.7941 53.6544 92.7051 53.5669 92.6162 53.4356L80.6078 57.3743C80.6078 57.4181 80.6078 57.4181 80.6078 57.4619C80.6078 57.8995 80.252 58.2934 79.7628 58.2934C79.318 58.2934 78.9177 57.9433 78.9177 57.4619C78.9177 57.0242 79.2735 56.6303 79.7628 56.6303C80.0741 56.6303 80.3409 56.8054 80.4744 57.0242L92.4828 53.0855C92.4828 53.0855 92.4828 53.0855 92.4828 53.0418L67.9323 50.3284C67.8433 50.6785 67.4875 50.8973 67.1317 50.8973C66.6869 50.8973 66.2867 50.5472 66.2867 50.0658C66.2867 49.8908 66.3311 49.7595 66.4201 49.6282L56.9023 40.1753C56.7689 40.2628 56.6355 40.3066 56.502 40.3066L55.2122 49.3219C55.5236 49.4532 55.7904 49.7595 55.7904 50.1096C55.7904 50.5472 55.4346 50.9411 54.9454 50.9411C54.5006 50.9411 54.1004 50.591 54.1004 50.1096C54.1004 49.672 54.4562 49.3219 54.9009 49.2781L56.1462 40.2628C55.9683 40.1753 55.7904 40.0878 55.7015 39.9127L49.6083 41.9259C49.6083 41.9696 49.6083 42.0134 49.6083 42.0134C49.6083 42.451 49.2525 42.8449 48.7633 42.8449C48.3185 42.8449 47.9183 42.4948 47.9183 42.0134C47.9183 41.5757 48.2741 41.1819 48.7633 41.1819C49.0746 41.1819 49.3415 41.3569 49.4749 41.5757L55.5681 39.5626C55.5681 39.5189 55.5681 39.4751 55.5681 39.4751C55.5681 39.2125 55.7015 38.9937 55.8794 38.8186L53.6556 34.4861C53.5667 34.4861 53.5222 34.5298 53.4332 34.5298C52.9885 34.5298 52.5882 34.1797 52.5882 33.6983C52.5882 33.2169 52.944 32.8668 53.4332 32.8668C53.878 32.8668 54.2783 33.2169 54.2783 33.6983C54.2783 33.9609 54.1448 34.1797 53.9669 34.3548L56.1907 38.6874C56.2797 38.6874 56.3241 38.6436 56.4131 38.6436C56.5465 38.6436 56.6799 38.6874 56.8134 38.7311L66.8204 26.8275C66.7759 26.7837 66.7759 26.74 66.7314 26.6962L61.4388 28.2279C61.4388 28.2717 61.4388 28.2717 61.4388 28.3154C61.4388 28.7531 61.083 29.1469 60.5938 29.1469C60.1046 29.1469 59.7488 28.7968 59.7488 28.3154C59.7488 27.8778 60.1046 27.4839 60.5938 27.4839C60.9051 27.4839 61.172 27.659 61.3499 27.9216L66.6425 26.3898C66.6425 26.3461 66.6425 26.3461 66.6425 26.3023C66.6425 26.0835 66.7314 25.8647 66.9093 25.7334L60.5493 16.2805C60.4604 16.3243 60.3269 16.3243 60.238 16.3243C59.7932 16.3243 59.393 15.9742 59.393 15.4928C59.393 15.0551 59.7488 14.6613 60.238 14.6613C60.4159 14.6613 60.5938 14.705 60.7272 14.7926L66.3756 9.40965C66.2867 9.27837 66.2422 9.14707 66.2422 8.97202C66.2422 8.70944 66.3311 8.49062 66.509 8.35933L65.3527 6.47751C65.2192 6.56503 65.1303 6.56503 65.0413 6.56503C64.5966 6.56503 64.1963 6.21493 64.1963 5.73353C64.1963 5.2959 64.5521 4.90203 65.0413 4.90203C65.4861 4.90203 65.8864 5.25213 65.8864 5.73353C65.8864 5.95235 65.7974 6.17116 65.6195 6.34622L66.7759 8.22804C66.8648 8.18428 66.9538 8.18428 67.0427 8.18428C67.0872 8.18428 67.0872 8.18428 67.1317 8.18428L67.9767 4.94579C67.7099 4.8145 67.4875 4.55192 67.4875 4.20181C67.4875 3.76418 67.8433 3.37031 68.3325 3.37031C68.8218 3.37031 69.1776 3.72041 69.1776 4.20181C69.1776 4.68321 68.8218 5.03332 68.3325 5.03332H68.2881L67.4875 8.31557C67.6209 8.4031 67.7544 8.49062 67.7988 8.62191L70.4229 7.87794C70.4229 7.83417 70.4229 7.83417 70.4229 7.79041C70.4229 7.35278 70.7787 6.9589 71.2679 6.9589C71.7127 6.9589 72.113 7.30901 72.113 7.79041C72.113 8.27181 71.7572 8.62191 71.2679 8.62191C70.9566 8.62191 70.6453 8.44686 70.5118 8.18428L67.8878 8.92826C67.8878 8.97202 67.8878 8.97202 67.8878 9.01578C67.8878 9.19084 67.8433 9.36589 67.7099 9.49718L69.2665 11.3352C69.4 11.2915 69.5334 11.2477 69.6668 11.2477C70.1116 11.2477 70.5118 11.5978 70.5118 12.0792C70.5118 12.5169 70.156 12.9107 69.6668 12.9107C69.222 12.9107 68.8218 12.5606 68.8218 12.0792C68.8218 11.9042 68.9107 11.6854 68.9997 11.5541L67.443 9.716C67.3096 9.80353 67.1762 9.84729 66.9983 9.84729C66.8204 9.84729 66.6425 9.80353 66.509 9.716L60.9496 15.0989C61.0385 15.2302 61.083 15.3615 61.083 15.5365C61.083 15.7553 60.9941 15.9742 60.8162 16.1055L67.1317 25.6021C67.2206 25.5583 67.3541 25.5583 67.443 25.5583C67.4875 25.5583 67.4875 25.5583 67.532 25.5583L68.9107 21.3133C68.6439 21.182 68.466 20.9194 68.466 20.6131C68.466 20.1754 68.8218 19.7816 69.311 19.7816C69.7558 19.7816 70.156 20.1317 70.156 20.6131C70.156 21.0507 69.8002 21.4446 69.311 21.4446C69.2665 21.4446 69.2665 21.4446 69.222 21.4446L67.8433 25.6896C68.0212 25.7772 68.1546 25.9085 68.1991 26.0835L72.958 25.2082C72.958 24.7706 73.3583 24.3767 73.803 24.3767C74.2478 24.3767 74.6481 24.7268 74.6481 25.2082C74.6481 25.6459 74.2923 26.0397 73.803 26.0397C73.4472 26.0397 73.1359 25.8209 73.0469 25.5146L68.2881 26.3898C68.2881 26.6524 68.1546 26.8712 67.9323 27.0463L69.6668 30.7224C69.7113 30.7224 69.8002 30.6787 69.8447 30.6787C70.2895 30.6787 70.6897 31.0288 70.6897 31.5102C70.6897 31.9916 70.3339 32.3417 69.8447 32.3417C69.3555 32.3417 69.0441 31.9478 69.0441 31.5102C69.0441 31.2476 69.1776 30.985 69.3999 30.8537L67.6654 27.1776C67.6209 27.1776 67.532 27.2214 67.4875 27.2214C67.3541 27.2214 67.2206 27.1776 67.0872 27.1338L57.0802 38.9937C57.1692 39.0812 57.2136 39.2125 57.2581 39.3438L63.9295 39.2563C64.0184 38.8624 64.3297 38.5998 64.73 38.5998C65.1748 38.5998 65.5751 38.9499 65.5751 39.4313C65.5751 39.869 65.2192 40.2628 64.73 40.2628C64.3297 40.2628 63.9739 40.0003 63.9295 39.6064L57.2581 39.6939C57.2581 39.7814 57.2136 39.9127 57.1247 40.0003L66.7314 49.4094C66.8648 49.3219 67.0427 49.2781 67.1762 49.2781C67.6209 49.2781 67.9767 49.6282 68.0212 50.0221L92.5717 52.7354C92.6162 52.6479 92.6607 52.5604 92.7051 52.4728L86.7454 45.3394C86.612 45.3832 86.4786 45.4269 86.3451 45.4269C85.9004 45.4269 85.5001 45.0768 85.5001 44.5954C85.5001 44.114 85.8559 43.7639 86.3451 43.7639C86.7899 43.7639 87.1902 44.114 87.1902 44.5954C87.1902 44.8142 87.1012 44.9893 87.0123 45.1206L92.972 52.254C93.1054 52.2103 93.2389 52.1665 93.3723 52.1665C93.4168 52.1665 93.4167 52.1665 93.4612 52.1665L95.9074 44.4204C95.6405 44.2891 95.4626 44.0265 95.4626 43.6764C95.4626 43.2388 95.8184 42.8449 96.3077 42.8449C96.7524 42.8449 97.1527 43.195 97.1527 43.6764C97.1527 44.1578 96.7969 44.5079 96.3077 44.5079C96.2632 44.5079 96.2632 44.5079 96.2187 44.5079L93.7726 52.254C93.8615 52.2978 93.906 52.3415 93.9949 52.4291L101.333 47.9652C101.289 47.8777 101.289 47.7901 101.289 47.7026C101.289 47.265 101.645 46.8711 102.134 46.8711C102.579 46.8711 102.979 47.2212 102.979 47.7026C102.979 48.1403 102.623 48.5341 102.134 48.5341C101.912 48.5341 101.689 48.4466 101.511 48.2715L94.1728 52.7354C94.2173 52.8229 94.2173 52.8667 94.2173 52.9542L104.847 54.2234C104.98 53.917 105.292 53.6544 105.648 53.6544C105.914 53.6544 106.137 53.7857 106.315 53.9608L115.966 48.928C115.966 48.8405 115.921 48.7967 115.921 48.7092C115.921 48.3591 116.144 48.0527 116.5 47.9214L114.632 34.6611C114.187 34.6174 113.831 34.2673 113.831 33.8296C113.831 33.392 114.187 32.9981 114.676 32.9981C114.854 32.9981 115.032 33.0419 115.165 33.1732L120.591 28.403C120.502 28.2717 120.458 28.1404 120.458 27.9653C120.458 27.5277 120.814 27.1338 121.303 27.1338C121.748 27.1338 122.148 27.4839 122.148 27.9653C122.148 28.3592 121.792 28.7531 121.303 28.7531Z" fill="#C9B44A"/>
<path d="M4.53533 93.2C4.74067 93.2 4.918 93.214 5.06733 93.242C5.21667 93.27 5.34733 93.326 5.45933 93.41C5.57133 93.4847 5.66933 93.592 5.75333 93.732C5.84667 93.8627 5.94 94.04 6.03333 94.264L8.94533 100.984C8.98267 101.068 9.048 101.11 9.14133 101.11H9.30933C9.40267 101.11 9.468 101.068 9.50533 100.984L12.4173 94.264C12.5107 94.04 12.5993 93.8627 12.6833 93.732C12.7767 93.592 12.8793 93.4847 12.9913 93.41C13.1033 93.326 13.2293 93.27 13.3693 93.242C13.5187 93.214 13.696 93.2 13.9013 93.2H15.3993C15.8847 93.2 16.2113 93.312 16.3793 93.536C16.5473 93.7507 16.6313 94.124 16.6313 94.656V102.692C16.6313 102.897 16.524 103 16.3093 103H14.8813C14.676 103 14.5733 102.897 14.5733 102.692V95.384C14.5733 95.2907 14.536 95.244 14.4613 95.244H14.3353C14.242 95.244 14.1813 95.2813 14.1533 95.356L11.3253 101.628C11.2133 101.88 11.0967 102.095 10.9753 102.272C10.8633 102.44 10.7373 102.58 10.5973 102.692C10.4667 102.804 10.3127 102.883 10.1353 102.93C9.96733 102.977 9.76667 103 9.53333 103H8.86133C8.628 103 8.42267 102.977 8.24533 102.93C8.07733 102.883 7.92333 102.804 7.78333 102.692C7.65267 102.58 7.52667 102.44 7.40533 102.272C7.29333 102.095 7.18133 101.88 7.06933 101.628L4.24133 95.356C4.21333 95.2813 4.15267 95.244 4.05933 95.244H3.93333C3.85867 95.244 3.82133 95.2907 3.82133 95.384V102.692C3.82133 102.897 3.71867 103 3.51333 103H2.08533C1.87067 103 1.76333 102.897 1.76333 102.692V94.656C1.76333 94.124 1.84733 93.7507 2.01533 93.536C2.18333 93.312 2.51467 93.2 3.00933 93.2H4.53533ZM28.872 93.2C29.0867 93.2 29.194 93.3027 29.194 93.508V94.838C29.194 95.0433 29.0867 95.146 28.872 95.146H22.754C22.39 95.146 22.0867 95.1787 21.844 95.244C21.6107 95.3 21.4194 95.4027 21.27 95.552C21.13 95.692 21.032 95.888 20.976 96.14C20.92 96.3827 20.892 96.686 20.892 97.05V97.19H28.802C29.0074 97.19 29.11 97.2927 29.11 97.498V98.604C29.11 98.8093 29.0074 98.912 28.802 98.912H20.892V99.15C20.892 99.514 20.92 99.822 20.976 100.074C21.032 100.317 21.13 100.513 21.27 100.662C21.4194 100.802 21.6107 100.905 21.844 100.97C22.0867 101.026 22.39 101.054 22.754 101.054H28.872C29.0867 101.054 29.194 101.157 29.194 101.362V102.692C29.194 102.897 29.0867 103 28.872 103H22.712C22.0027 103 21.4007 102.935 20.906 102.804C20.4114 102.673 20.0054 102.463 19.688 102.174C19.38 101.875 19.1514 101.493 19.002 101.026C18.862 100.55 18.792 99.976 18.792 99.304V96.896C18.792 96.224 18.862 95.6547 19.002 95.188C19.1514 94.7213 19.38 94.3433 19.688 94.054C20.0054 93.7553 20.4114 93.5407 20.906 93.41C21.4007 93.27 22.0027 93.2 22.712 93.2H28.872ZM40.9486 93.2C41.1539 93.2 41.2566 93.3027 41.2566 93.508V94.838C41.2566 95.0433 41.1539 95.146 40.9486 95.146H33.9346C33.6639 95.146 33.4726 95.216 33.3606 95.356C33.2486 95.496 33.1926 95.6873 33.1926 95.93V96.406C33.1926 96.9287 33.4352 97.19 33.9206 97.19H39.1706C39.9826 97.19 40.5939 97.4 41.0046 97.82C41.4152 98.2307 41.6206 98.8233 41.6206 99.598V100.718C41.6206 101.399 41.4199 101.95 41.0186 102.37C40.6172 102.79 39.9919 103 39.1426 103H31.3866C31.1719 103 31.0646 102.897 31.0646 102.692V101.362C31.0646 101.157 31.1719 101.054 31.3866 101.054H38.7366C39.0072 101.054 39.1986 100.984 39.3106 100.844C39.4226 100.704 39.4786 100.513 39.4786 100.27V99.696C39.4786 99.1733 39.2359 98.912 38.7506 98.912H33.5006C32.6886 98.912 32.0772 98.7067 31.6666 98.296C31.2559 97.876 31.0506 97.2787 31.0506 96.504V95.482C31.0506 94.8007 31.2512 94.25 31.6526 93.83C32.0539 93.41 32.6792 93.2 33.5286 93.2H40.9486ZM53.6105 93.2C53.8251 93.2 53.9325 93.3027 53.9325 93.508V94.838C53.9325 95.0433 53.8251 95.146 53.6105 95.146H47.4925C47.1285 95.146 46.8251 95.1787 46.5825 95.244C46.3491 95.3 46.1578 95.4027 46.0085 95.552C45.8685 95.692 45.7705 95.888 45.7145 96.14C45.6585 96.3827 45.6305 96.686 45.6305 97.05V97.19H53.5405C53.7458 97.19 53.8485 97.2927 53.8485 97.498V98.604C53.8485 98.8093 53.7458 98.912 53.5405 98.912H45.6305V99.15C45.6305 99.514 45.6585 99.822 45.7145 100.074C45.7705 100.317 45.8685 100.513 46.0085 100.662C46.1578 100.802 46.3491 100.905 46.5825 100.97C46.8251 101.026 47.1285 101.054 47.4925 101.054H53.6105C53.8251 101.054 53.9325 101.157 53.9325 101.362V102.692C53.9325 102.897 53.8251 103 53.6105 103H47.4505C46.7411 103 46.1391 102.935 45.6445 102.804C45.1498 102.673 44.7438 102.463 44.4265 102.174C44.1185 101.875 43.8898 101.493 43.7405 101.026C43.6005 100.55 43.5305 99.976 43.5305 99.304V96.896C43.5305 96.224 43.6005 95.6547 43.7405 95.188C43.8898 94.7213 44.1185 94.3433 44.4265 94.054C44.7438 93.7553 45.1498 93.5407 45.6445 93.41C46.1391 93.27 46.7411 93.2 47.4505 93.2H53.6105ZM57.595 101.04C57.8003 101.04 57.903 101.143 57.903 101.348V102.692C57.903 102.897 57.8003 103 57.595 103H56.223C56.0083 103 55.901 102.897 55.901 102.692V101.348C55.901 101.143 56.0083 101.04 56.223 101.04H57.595ZM61.9434 93.2C62.1488 93.2 62.2514 93.3027 62.2514 93.508V102.692C62.2514 102.897 62.1488 103 61.9434 103H60.4314C60.2168 103 60.1094 102.897 60.1094 102.692V93.508C60.1094 93.3027 60.2168 93.2 60.4314 93.2H61.9434ZM72.6693 93.2C73.3786 93.2 73.9806 93.27 74.4753 93.41C74.9793 93.5407 75.3853 93.7553 75.6933 94.054C76.0106 94.3433 76.2393 94.7213 76.3793 95.188C76.5193 95.6547 76.5893 96.224 76.5893 96.896V99.304C76.5893 99.976 76.5193 100.55 76.3793 101.026C76.2393 101.493 76.0106 101.875 75.6933 102.174C75.3853 102.463 74.9793 102.673 74.4753 102.804C73.9806 102.935 73.3786 103 72.6693 103H68.3433C67.634 103 67.032 102.935 66.5373 102.804C66.0426 102.673 65.6366 102.463 65.3193 102.174C65.0113 101.875 64.7826 101.493 64.6333 101.026C64.4933 100.55 64.4233 99.976 64.4233 99.304V96.896C64.4233 96.224 64.4933 95.6547 64.6333 95.188C64.7826 94.7213 65.0113 94.3433 65.3193 94.054C65.6366 93.7553 66.0426 93.5407 66.5373 93.41C67.032 93.27 67.634 93.2 68.3433 93.2H72.6693ZM66.5653 99.15C66.5653 99.514 66.5933 99.822 66.6493 100.074C66.7146 100.317 66.8173 100.513 66.9573 100.662C67.0973 100.802 67.284 100.905 67.5173 100.97C67.76 101.026 68.0633 101.054 68.4273 101.054H72.5853C72.9493 101.054 73.248 101.026 73.4813 100.97C73.724 100.905 73.9153 100.802 74.0553 100.662C74.1953 100.513 74.2933 100.317 74.3493 100.074C74.4146 99.822 74.4473 99.514 74.4473 99.15V97.05C74.4473 96.686 74.4146 96.3827 74.3493 96.14C74.2933 95.888 74.1953 95.692 74.0553 95.552C73.9153 95.4027 73.724 95.3 73.4813 95.244C73.248 95.1787 72.9493 95.146 72.5853 95.146H68.4273C68.0633 95.146 67.76 95.1787 67.5173 95.244C67.284 95.3 67.0973 95.4027 66.9573 95.552C66.8173 95.692 66.7146 95.888 66.6493 96.14C66.5933 96.3827 66.5653 96.686 66.5653 97.05V99.15ZM85.2317 93.2C85.325 93.2 85.3903 93.2607 85.4277 93.382L87.6957 100.914C87.705 100.979 87.7423 101.012 87.8077 101.012H87.8777C87.9337 101.012 87.971 100.979 87.9897 100.914L90.2577 94.012C90.3603 93.6947 90.4957 93.48 90.6637 93.368C90.8317 93.256 91.0417 93.2 91.2937 93.2H92.6797C92.9877 93.2 93.221 93.2607 93.3797 93.382C93.5477 93.5033 93.683 93.7133 93.7857 94.012L96.1097 100.914C96.1283 100.979 96.1657 101.012 96.2217 101.012H96.3057C96.3617 101.012 96.399 100.979 96.4177 100.914L98.6297 93.382C98.6483 93.3073 98.6763 93.2607 98.7137 93.242C98.7603 93.214 98.807 93.2 98.8537 93.2H100.744C100.818 93.2 100.86 93.2327 100.87 93.298C100.888 93.3633 100.884 93.438 100.856 93.522L98.1677 101.936C98.037 102.356 97.8923 102.641 97.7337 102.79C97.575 102.93 97.3603 103 97.0897 103H95.4517C95.181 103 94.9663 102.925 94.8077 102.776C94.6583 102.627 94.5137 102.347 94.3737 101.936L92.1757 95.286C92.1663 95.2207 92.129 95.188 92.0637 95.188H92.0077C91.9423 95.188 91.905 95.2207 91.8957 95.286L89.6697 101.936C89.5297 102.347 89.3803 102.627 89.2217 102.776C89.0723 102.925 88.8623 103 88.5917 103H86.9957C86.837 103 86.697 102.986 86.5757 102.958C86.4637 102.93 86.361 102.879 86.2677 102.804C86.1743 102.72 86.0903 102.608 86.0157 102.468C85.9503 102.328 85.885 102.151 85.8197 101.936L83.2437 93.522C83.2157 93.4287 83.2063 93.354 83.2157 93.298C83.2343 93.2327 83.281 93.2 83.3557 93.2H85.2317ZM107.189 93.2C107.544 93.2 107.842 93.2747 108.085 93.424C108.328 93.564 108.566 93.844 108.799 94.264L113.433 102.678C113.48 102.771 113.489 102.851 113.461 102.916C113.442 102.972 113.377 103 113.265 103H111.487C111.328 103 111.221 102.939 111.165 102.818L110.171 101.012H103.591L102.625 102.818C102.56 102.939 102.452 103 102.303 103H100.483C100.362 103 100.287 102.972 100.259 102.916C100.24 102.851 100.254 102.771 100.301 102.678L104.893 94.264C105.126 93.844 105.355 93.564 105.579 93.424C105.803 93.2747 106.064 93.2 106.363 93.2H107.189ZM104.473 99.388H109.289L107.063 95.286C107.026 95.2207 106.974 95.188 106.909 95.188H106.825C106.76 95.188 106.708 95.2207 106.671 95.286L104.473 99.388ZM116.283 93.2C116.488 93.2 116.591 93.3027 116.591 93.508V99.094C116.591 99.4673 116.619 99.78 116.675 100.032C116.74 100.275 116.843 100.471 116.983 100.62C117.123 100.76 117.31 100.863 117.543 100.928C117.786 100.984 118.089 101.012 118.453 101.012H124.123C124.328 101.012 124.431 101.115 124.431 101.32V102.692C124.431 102.897 124.328 103 124.123 103H118.369C117.66 103 117.058 102.935 116.563 102.804C116.068 102.673 115.662 102.463 115.345 102.174C115.037 101.875 114.808 101.493 114.659 101.026C114.519 100.55 114.449 99.976 114.449 99.304V93.508C114.449 93.3027 114.556 93.2 114.771 93.2H116.283ZM127.723 93.2C127.928 93.2 128.031 93.3027 128.031 93.508V99.094C128.031 99.4673 128.059 99.78 128.115 100.032C128.18 100.275 128.283 100.471 128.423 100.62C128.563 100.76 128.749 100.863 128.983 100.928C129.225 100.984 129.529 101.012 129.893 101.012H135.563C135.768 101.012 135.871 101.115 135.871 101.32V102.692C135.871 102.897 135.768 103 135.563 103H129.809C129.099 103 128.497 102.935 128.003 102.804C127.508 102.673 127.102 102.463 126.785 102.174C126.477 101.875 126.248 101.493 126.099 101.026C125.959 100.55 125.889 99.976 125.889 99.304V93.508C125.889 93.3027 125.996 93.2 126.211 93.2H127.723ZM147.515 93.2C147.73 93.2 147.837 93.3027 147.837 93.508V94.838C147.837 95.0433 147.73 95.146 147.515 95.146H141.397C141.033 95.146 140.73 95.1787 140.487 95.244C140.254 95.3 140.063 95.4027 139.913 95.552C139.773 95.692 139.675 95.888 139.619 96.14C139.563 96.3827 139.535 96.686 139.535 97.05V97.19H147.445C147.651 97.19 147.753 97.2927 147.753 97.498V98.604C147.753 98.8093 147.651 98.912 147.445 98.912H139.535V99.15C139.535 99.514 139.563 99.822 139.619 100.074C139.675 100.317 139.773 100.513 139.913 100.662C140.063 100.802 140.254 100.905 140.487 100.97C140.73 101.026 141.033 101.054 141.397 101.054H147.515C147.73 101.054 147.837 101.157 147.837 101.362V102.692C147.837 102.897 147.73 103 147.515 103H141.355C140.646 103 140.044 102.935 139.549 102.804C139.055 102.673 138.649 102.463 138.331 102.174C138.023 101.875 137.795 101.493 137.645 101.026C137.505 100.55 137.435 99.976 137.435 99.304V96.896C137.435 96.224 137.505 95.6547 137.645 95.188C137.795 94.7213 138.023 94.3433 138.331 94.054C138.649 93.7553 139.055 93.5407 139.549 93.41C140.044 93.27 140.646 93.2 141.355 93.2H147.515ZM160.516 93.2C160.731 93.2 160.838 93.3027 160.838 93.508V94.88C160.838 95.0947 160.731 95.202 160.516 95.202H156.12V102.692C156.12 102.897 156.017 103 155.812 103H154.286C154.081 103 153.978 102.897 153.978 102.692V95.202H149.582C149.367 95.202 149.26 95.0947 149.26 94.88V93.508C149.26 93.3027 149.367 93.2 149.582 93.2H160.516Z" fill="#C9B44A"/>
</svg>
