<svg width="188" height="35" viewBox="0 0 188 35" fill="none" xmlns="http://www.w3.org/2000/svg">
<path d="M8.93304 10.2631C8.5379 10.7609 8.08886 11.1056 7.56799 11.297C7.26265 11.4119 6.9573 11.5268 6.61604 11.5077C6.05924 11.4885 5.62817 11.2013 5.48448 10.5503C5.41263 10.2248 5.57429 9.82277 5.91555 9.59301C5.98739 9.53557 6.05924 9.49728 6.13108 9.45898C6.3107 10.2823 7.29857 10.5695 7.94517 10.4929C8.26848 10.4546 8.57382 10.378 8.93304 10.2631Z" fill="#C9B44A"/>
<path d="M41.084 11.2201C40.3476 10.9903 39.5932 10.8371 38.8388 10.7414C37.9408 10.6457 37.0427 10.6457 36.1446 10.8563C35.4621 11.0286 34.8514 11.2967 34.2766 11.7179C32.9116 12.7326 32.5344 14.1686 32.6781 15.8535C32.732 16.4662 32.8757 17.0597 33.0553 17.6533C33.2169 18.1894 33.3427 18.7446 33.4145 19.2999C33.5223 19.97 33.5941 20.6401 33.4504 21.3294C33.3786 21.674 33.2708 21.9995 32.9475 22.1527C32.6062 22.3442 32.2829 22.2101 31.9596 22.0761C31.5645 21.923 31.2771 21.5975 31.0077 21.272C30.415 20.5444 29.8222 19.8168 29.1218 19.185C28.7446 18.8404 28.4033 18.4766 27.9543 18.2277C27.3975 17.9022 26.7868 17.7299 26.1402 17.6916C25.4936 17.6533 24.8649 17.7107 24.2363 17.8256C23.7334 17.9213 23.2484 18.0554 22.7455 18.2085C22.1348 18.4 21.5241 18.6298 20.9314 18.8404C20.5722 18.9552 20.2309 19.0893 19.8717 19.1659C19.3508 19.2424 18.8479 19.185 18.363 19.0127C18.0576 18.917 17.7702 18.7829 17.5367 18.534C17.429 18.4191 17.3751 18.3043 17.411 18.1511C17.4469 17.9979 17.5727 17.9596 17.6984 17.9405C18.0935 17.8639 18.5066 17.8065 18.9018 17.6533C19.1712 17.5576 19.4586 17.4427 19.728 17.3087C19.71 17.2512 19.6741 17.2512 19.6562 17.2512C19.3329 17.1746 18.9916 17.1172 18.6683 17.0406C18.0756 16.9066 17.5008 16.7725 16.926 16.5619C16.6746 16.4662 16.4231 16.3705 16.2256 16.1599C15.9921 15.911 16.028 15.6429 16.2974 15.4706C16.6566 15.2408 17.0518 15.1834 17.4469 15.126C17.9319 15.0494 18.4168 15.0302 18.9198 15.0302C19.261 15.0302 19.6202 15.0111 19.9615 14.9919C19.9076 14.9536 19.8537 14.9153 19.7999 14.9153C19.4227 14.8579 19.0634 14.743 18.7042 14.609C18.3989 14.4941 18.0935 14.3409 17.878 14.0537C17.6625 13.7857 17.8062 13.5942 17.9858 13.4602C18.0576 13.4219 18.1474 13.4028 18.2372 13.3645C18.6503 13.2496 19.0814 13.2113 19.5125 13.1922C20.4105 13.1347 21.3086 13.1156 22.2246 13.1156C22.3683 13.1156 22.512 13.1156 22.6557 13.1156C22.2067 13.0007 21.7576 12.9241 21.3086 12.8284C20.8955 12.7518 20.4824 12.6561 20.0872 12.5795C19.728 12.5029 19.3867 12.4072 19.0634 12.254C19.0096 12.2348 18.9377 12.2348 18.9377 12.1582C18.9377 12.0817 19.0096 12.0242 19.0814 11.9859C19.1173 11.9668 19.1712 11.9668 19.2071 11.9668C19.4047 11.9668 19.6202 11.9859 19.8178 11.9859C20.0693 11.9859 20.3207 11.9859 20.6081 11.9859C20.3028 11.6987 19.9974 11.4307 19.6921 11.1435C19.6382 11.086 19.5843 11.0477 19.6023 10.9712C19.6382 10.8946 19.6921 10.8563 19.7819 10.8563C20.4465 10.7988 21.0931 10.7606 21.7576 10.7031C22.045 10.684 22.3144 10.6457 22.6198 10.6265C22.5479 10.5691 22.4581 10.5882 22.3863 10.5691C21.8115 10.5116 21.2547 10.4351 20.6979 10.3393C20.2489 10.2627 19.7999 10.167 19.3508 10.0521C18.9557 9.9564 18.5426 9.87981 18.2013 9.63091C17.9678 9.45859 17.9139 9.30542 18.0396 9.01822C18.2552 8.55871 18.6503 8.3481 19.0634 8.17578C19.71 7.92687 20.3746 7.81199 21.0571 7.79285C21.129 7.79285 21.2188 7.79285 21.2727 7.75455C21.0571 7.71626 20.8236 7.67797 20.5902 7.62053C19.9974 7.4865 19.4047 7.31419 18.8299 7.08443C18.345 6.89296 17.878 6.68235 17.4828 6.29942C17.1955 6.01223 17.2134 5.66759 17.5367 5.41868C18.0396 5.03575 18.6144 4.84429 19.1892 4.65283C19.3688 4.59539 19.5664 4.53795 19.7999 4.46136C19.5843 4.38477 19.4227 4.34648 19.2431 4.28904C18.8299 4.13587 18.4348 3.94441 18.1295 3.59977C17.86 3.29343 17.9319 2.96793 18.2911 2.83391C18.4707 2.75732 18.6683 2.73818 18.8479 2.71903C19.3149 2.66159 19.7639 2.6233 20.2309 2.64244C20.2668 2.64244 20.3028 2.66159 20.3387 2.60415C20.195 2.54671 20.0693 2.48927 19.9256 2.43183C19.5664 2.27866 19.2071 2.10634 18.9198 1.8C18.7042 1.5511 18.7042 1.24475 18.9377 1.01499C19.1353 0.804383 19.4047 0.727797 19.6741 0.689504C19.8537 0.670357 20.0513 0.651211 20.2489 0.651211C20.1591 0.632064 20.0693 0.574625 19.9974 0.555478C19.2431 0.38316 18.5066 0.210842 17.7523 0.115109C16.9979 0.0193768 16.2435 -0.0572091 15.4891 0.0576698C15.2018 0.115109 14.8964 0.172549 14.6809 0.402306C14.4474 0.632064 14.2678 0.880968 14.1241 1.18731C13.8367 1.74256 13.6751 2.3361 13.693 2.96793C13.711 3.21684 13.7828 3.46574 13.8187 3.71465C13.8726 4.13587 13.8367 4.36563 13.3877 4.49965C13.1721 4.55709 12.9566 4.53795 12.7411 4.57624C12.3459 4.63368 11.9328 4.59539 11.5556 4.69112C11.2862 4.74856 11.0527 4.86344 10.8731 5.11234C10.6576 5.43783 10.6216 5.82076 10.6576 6.20369C10.6755 6.37601 10.6216 6.51003 10.4959 6.62491C10.1906 6.89296 9.88523 7.14187 9.56192 7.37163C9.31046 7.56309 9.05901 7.71626 8.7357 7.75455C8.52017 7.79285 8.39444 7.96517 8.35852 8.21407C8.30463 8.57785 8.26871 8.94164 8.21483 9.30542C8.19687 9.4203 8.23279 9.45859 8.32259 9.47774C8.59201 9.51603 8.84347 9.59262 9.11289 9.55432C9.47212 9.49689 9.79542 9.36286 9.93911 8.96078C9.99299 8.78846 10.0828 8.61615 10.2445 8.50127C10.5498 8.29066 10.8731 8.21407 11.2323 8.19492C11.2862 8.19492 11.3401 8.23322 11.376 8.27151C11.4299 8.32895 11.4299 8.36724 11.3581 8.40554C11.2323 8.46298 11.1425 8.53956 11.0347 8.63529C10.6935 8.94164 10.3702 9.26713 10.1726 9.68835C10.011 10.033 10.0648 10.2245 10.3702 10.3968C10.5318 10.4925 10.6935 10.5499 10.8551 10.6074C11.1425 10.7031 11.5197 10.4542 11.5556 10.1287C11.6095 9.74579 11.6634 9.36286 11.8071 8.99908C11.8969 8.76932 12.0585 8.65444 12.2741 8.63529C12.5255 8.61615 12.795 8.71188 12.9746 8.99908C13.1721 9.28627 13.1542 9.59262 12.9925 9.89896C12.7411 10.3776 12.3459 10.7031 11.9508 11.0095C11.1605 11.6413 10.2983 12.1774 9.50804 12.8284C9.07697 13.1922 8.66386 13.5751 8.34056 14.0537C8.12502 14.3601 8.05317 14.6664 8.14298 15.0494C8.1789 15.2217 8.26871 15.3557 8.37648 15.4897C8.23279 15.528 8.10706 15.4897 7.98133 15.528C7.49638 15.6621 7.0653 15.911 6.67016 16.2364C6.4187 16.4471 6.20316 16.696 6.22112 17.0789C6.22112 17.1555 6.1852 17.1746 6.11336 17.1938C6.00559 17.2129 5.91578 17.2129 5.80801 17.1938C5.52063 17.1172 5.23325 17.0597 4.96383 16.9832C4.47888 16.8491 4.01189 16.7343 3.52693 16.6002C3.25751 16.5236 3.04198 16.5811 2.80848 16.7151C2.17984 17.1172 1.56915 17.5384 0.976429 17.9788C0.653126 18.2277 0.347784 18.5149 0.168172 18.8978C-0.0114413 19.2616 -0.0653251 19.6445 0.0963264 20.0275C0.527397 19.702 0.958468 19.3956 1.37158 19.1084C1.46138 19.051 1.49731 18.9935 1.47935 18.8787C1.46138 18.7063 1.46138 18.5149 1.44342 18.3426C1.44342 18.2468 1.47935 18.1894 1.55119 18.1319C1.7308 18.0362 1.89245 17.9213 2.09003 17.8448C2.88033 17.481 3.68858 17.3278 4.46092 17.883C5.35898 18.534 5.96967 19.3765 5.87986 20.621C5.82598 21.2528 5.48471 21.7506 4.90995 21.9995C4.29927 22.2676 3.6347 22.3059 3.00605 22.4208C2.68275 22.4782 2.41333 22.5931 2.16187 22.8228C1.71284 23.2441 1.46138 23.761 1.4075 24.3928C1.37158 24.8332 1.46138 25.2544 1.74876 25.5991C2.30556 26.2118 3.00605 26.4607 3.77839 26.3649C4.35315 26.2883 4.76626 25.9629 4.9818 25.3885C5.0716 25.1396 5.03568 24.8907 4.83811 24.7375C4.73034 24.6418 4.60461 24.6035 4.46092 24.6609C4.31723 24.6992 4.35315 24.8332 4.31723 24.9289C4.28131 25.063 4.22742 25.1779 4.15558 25.2736C3.90412 25.5799 3.50897 25.6182 3.13178 25.4459C2.37741 25.1013 2.21576 24.3163 2.46722 23.5887C2.62887 23.1292 2.97013 22.8611 3.36528 22.6697C4.01189 22.3442 4.71238 22.191 5.41287 22.0187C6.16724 21.8272 6.43666 21.5017 6.43666 20.6784C6.43666 20.2189 6.29297 19.8168 6.14928 19.3956C6.13132 19.319 6.05947 19.2616 6.16724 19.2042C6.27501 19.1659 6.31093 19.2424 6.32889 19.319C6.49054 19.7211 6.70608 20.0849 6.90365 20.4678C7.28084 21.1762 7.83764 21.6166 8.57405 21.8081C8.71774 21.8464 8.77163 21.9612 8.75366 22.1144C8.7357 22.191 8.71774 22.2484 8.68182 22.325C8.48425 22.9186 8.35852 23.5504 8.46628 24.1631C8.52017 24.4886 8.39444 24.6035 8.19687 24.7183C8.1789 24.7375 8.14298 24.7566 8.12502 24.7566C7.55026 25.0438 7.13715 25.4842 6.79589 26.0394C6.742 26.1352 6.72404 26.1926 6.79589 26.2883C7.47841 27.3414 8.07114 28.471 8.7357 29.5241C8.95124 29.8496 9.22066 30.0794 9.63377 30.0794C9.90319 30.0794 10.1726 30.1751 10.4241 30.3091C10.6037 30.4048 10.7833 30.5389 10.9809 30.6537C10.9629 30.3474 10.8911 30.0602 10.7474 29.8113C10.6037 29.5624 10.4241 29.3326 10.2445 29.1029C10.0469 28.8731 10.0469 28.8731 9.77746 28.9689C9.72357 28.988 9.66969 29.0072 9.61581 29.0263C9.32843 29.1412 9.07697 29.0454 8.93328 28.7582C8.62794 28.1647 8.30463 27.552 7.99929 26.9585C7.92745 26.8245 7.87356 26.6713 7.90948 26.5181C7.99929 26.0969 8.16094 25.7522 8.52017 25.5225C8.86143 25.3119 9.22066 25.1587 9.59785 25.063C10.2445 24.8907 10.8731 24.8332 11.5197 25.0247C11.9508 25.1396 12.2741 25.4076 12.4178 25.8671C12.4896 26.116 12.5255 26.4032 12.5435 26.6713C12.6333 27.4946 12.7231 28.3179 12.9207 29.1412C13.0464 29.6773 13.2799 30.1559 13.693 30.5197C14.16 30.9409 14.7168 31.1707 15.3455 31.1898C16.0459 31.2281 16.6566 30.9984 17.0877 30.3857C17.3392 30.0411 17.4469 29.639 17.2853 29.2178C17.1057 28.7008 16.7285 28.3753 16.2076 28.337C15.9382 28.3179 15.6867 28.3945 15.4532 28.6051C15.6688 28.6242 15.8484 28.6817 15.9921 28.7965C16.2615 28.9689 16.4231 29.2369 16.4052 29.5815C16.3872 29.9453 16.1537 30.1368 15.8304 30.2517C15.5251 30.3474 15.2197 30.3283 14.9323 30.2325C14.4833 30.0985 14.142 29.8304 13.9265 29.3709C13.693 28.8731 13.5852 28.3179 13.4775 27.7818C13.3518 27.0734 13.1721 26.4032 12.9566 25.7331C12.9027 25.5416 12.8668 25.3693 12.8848 25.1779C12.9207 24.8715 13.1183 24.7183 13.3877 24.7949C13.4775 24.8141 13.5852 24.8524 13.6751 24.8907C14.1061 25.0247 14.5192 25.1587 14.9683 25.2353C15.3814 25.2927 15.8124 25.2927 16.2256 25.3119C16.962 25.331 17.6984 25.331 18.4348 25.2544C18.7761 25.2161 18.9018 25.2927 19.0096 25.6374C19.0096 25.6565 19.0275 25.6757 19.0455 25.6948C19.5304 26.8053 20.213 27.7435 21.129 28.4902C21.4882 28.7965 21.9013 29.0071 22.3504 29.0837C22.53 29.1029 22.7096 29.0646 22.9251 29.1795C22.8173 29.2178 22.7455 29.2561 22.6557 29.2752C22.1707 29.4284 21.7038 29.5624 21.2188 29.7347C20.6261 29.9262 20.0513 30.1559 19.4586 30.3474C19.0096 30.5006 18.5785 30.7112 18.2372 31.075C17.9319 31.4005 17.7882 31.7834 17.7882 32.2429C17.7882 32.3578 17.8062 32.3961 17.9319 32.3386C18.4528 32.128 18.9736 31.9174 19.4945 31.7068C19.5664 31.6685 19.6023 31.6302 19.6202 31.5345C19.6741 30.9409 20.0333 30.5963 20.5363 30.424C21.2368 30.1751 21.9552 30.1751 22.6916 30.1751C23.2843 30.1751 23.8771 30.2325 24.4518 30.3283C24.9907 30.424 25.5475 30.5197 26.0504 30.7878C26.7329 31.1324 27.1281 31.6685 27.0921 32.4727C27.0921 32.7982 26.9844 33.1236 26.7149 33.3343C26.5713 33.43 26.4455 33.4683 26.2659 33.3917C26.0863 33.3151 25.9606 33.1619 25.8708 32.9896C25.8348 32.913 25.7989 32.8747 25.745 32.9705C25.6373 33.1619 25.5654 33.3534 25.6193 33.5832C25.745 34.0235 26.1402 34.3107 26.6072 34.3299C27.0921 34.349 27.4334 34.0044 27.5591 33.6023C27.7208 33.1236 27.6489 32.6258 27.5232 32.1472C27.3795 31.5919 27.1101 31.1133 26.679 30.7303C26.6072 30.6729 26.6072 30.6155 26.679 30.5772C26.8048 30.4814 26.8586 30.3474 26.8586 30.1942C26.8946 29.9645 26.9305 29.7539 27.0023 29.5433C27.1819 29.0454 27.3795 28.9497 27.7747 29.0837C28.2955 29.2561 28.6727 29.639 28.9062 30.1751C29.1218 30.6346 29.2116 31.1516 29.5169 31.5919C29.7145 31.8791 29.8222 32.2429 30.0378 32.5301C30.397 33.0088 30.8999 33.2385 31.4028 33.4683C32.1033 33.7746 32.714 34.1958 33.0194 35C33.2708 34.6362 33.2349 34.2724 33.1451 33.8895C33.0373 33.4683 32.8218 33.1236 32.5164 32.8173C32.1931 32.511 31.9596 32.128 31.7441 31.7068C31.7261 31.7451 31.7082 31.7642 31.6902 31.7834C31.5286 31.994 31.3669 32.2046 31.0975 32.2429C30.7562 32.3003 30.5227 32.0897 30.3431 31.8217C30.0917 31.4388 29.9839 31.0175 29.9659 30.558C29.948 30.29 29.948 30.0028 30.0378 29.7347C30.1994 29.2943 30.4868 28.9114 30.8281 28.6051C31.4208 28.069 32.1033 27.6669 32.8757 27.4563C33.4325 27.3031 34.0072 27.2457 34.564 27.4754C35.2466 27.7626 35.6237 28.6817 35.4262 29.2369C35.2825 29.6581 35.049 29.7156 34.6898 29.6007C34.4024 29.505 34.2766 29.2369 34.2048 28.9306C34.1868 28.854 34.1868 28.8157 34.097 28.8731C33.8995 28.988 33.7558 29.1603 33.7378 29.4092C33.7198 29.6964 33.8456 29.9262 34.0611 30.0602C34.4742 30.3283 34.9053 30.4048 35.3902 30.2708C35.8572 30.1368 36.2703 29.6198 36.3063 29.1029C36.3422 28.471 36.1087 27.9732 35.7315 27.5329C35.3184 27.0542 34.7796 26.767 34.2048 26.5755C33.648 26.3841 33.0912 26.2883 32.5164 26.4032C32.0854 26.4798 32.1033 26.3266 32.0494 26.0012C32.0494 25.982 32.0494 25.9437 32.0494 25.9246C32.0315 25.8288 32.0494 25.8097 32.1393 25.7905C32.4626 25.7331 32.7679 25.6374 33.0912 25.5991C33.3427 25.5608 33.5941 25.465 33.8456 25.5991C33.9713 25.6565 34.115 25.714 34.2587 25.7522C34.8694 25.982 35.498 26.0777 36.1267 26.1543C36.3422 26.1735 36.5757 26.1543 36.8092 26.1543C36.2883 25.982 35.7674 25.8097 35.2466 25.5799C34.9412 25.4459 34.6538 25.3119 34.4203 25.063C34.2407 24.8715 34.2048 24.6609 34.3485 24.4886C34.4383 24.3928 34.564 24.3354 34.7077 24.3354C35.3184 24.3163 35.8932 24.5269 36.4859 24.5843C37.0606 24.6226 37.6174 24.6992 38.1922 24.7183C38.1204 24.6992 38.0844 24.6418 38.0126 24.6226C37.3121 24.3928 36.6475 24.0865 36.0369 23.6653C35.8034 23.5121 35.6058 23.3398 35.4621 23.0717C35.3004 22.7654 35.516 22.4973 35.7495 22.4399C36.1446 22.3059 36.5218 22.3825 36.899 22.4782C37.3301 22.5739 37.7611 22.6697 38.2102 22.7463C38.6592 22.8228 39.0903 22.9377 39.5213 22.976C39.5034 22.9569 39.4854 22.9377 39.4675 22.9377C38.8568 22.7271 38.2641 22.4782 37.6713 22.191C37.3839 22.0378 37.0966 21.8847 36.899 21.6166C36.6835 21.3486 36.7553 21.0805 37.0247 20.9465C37.1864 20.8699 37.348 20.8316 37.5276 20.8125C37.9408 20.7933 38.3539 20.8699 38.749 20.9082C39.0543 20.9465 39.3597 20.9656 39.665 21.0231C39.8985 21.0614 40.15 21.0614 40.4014 21.0997C40.2398 21.0231 40.0961 20.9656 39.9345 20.9082C39.0364 20.5636 38.1563 20.2189 37.3121 19.7403C36.9708 19.5488 36.6296 19.319 36.3961 18.9744C36.2165 18.6872 36.2344 18.4191 36.45 18.2085C36.5757 18.0745 36.7373 18.0171 36.899 17.9596C37.2223 17.8639 37.5456 17.8639 37.8689 17.883C38.6951 17.883 39.5034 17.9405 40.3116 18.0362C40.4014 18.0362 40.4733 18.0362 40.5631 18.0362C39.6291 17.6916 38.6951 17.3469 37.815 16.9066C37.3839 16.696 36.9888 16.4279 36.7373 15.9875C36.414 15.4323 36.5398 14.8196 37.0427 14.475C37.2762 14.3218 37.5456 14.2261 37.833 14.2261C38.6772 14.2261 39.5213 14.3409 40.3655 14.4941C40.5811 14.5324 40.8146 14.5516 41.048 14.5898C40.599 14.3409 40.15 14.1303 39.7189 13.8814C39.2699 13.6325 38.8388 13.3645 38.4976 12.9433C38.1383 12.5029 38.2102 12.1391 38.6592 11.8519C38.9466 11.6604 39.2699 11.5839 39.6111 11.5647C40.3476 11.5264 41.1019 11.5264 41.8204 11.6987C41.8743 11.7179 41.9282 11.7179 42 11.6796C41.7485 11.4307 41.4073 11.3158 41.084 11.2201ZM37.2762 12.5795C37.2043 12.5795 37.1325 12.5603 37.0786 12.5029L34.8873 14.609C34.9233 14.6664 34.9412 14.7239 34.9412 14.8005C34.9412 14.9536 34.8514 15.0877 34.7077 15.1451L35.4621 20.9465C35.6417 20.9656 35.7854 21.1188 35.7854 21.3103C35.7854 21.5017 35.6417 21.674 35.4441 21.674C35.3364 21.674 35.2466 21.6166 35.1747 21.54L31.2771 23.7419C31.2771 23.7802 31.2951 23.7993 31.2951 23.8376C31.2951 24.0291 31.1514 24.2014 30.9538 24.2014C30.7742 24.2014 30.6305 24.0482 30.6125 23.8759L26.3198 23.3206C26.3018 23.3589 26.2839 23.3972 26.2659 23.4164L29.7324 27.5329C29.7863 27.4946 29.8402 27.4754 29.9121 27.4754C30.0917 27.4754 30.2533 27.6286 30.2533 27.8392C30.2533 28.0307 30.1096 28.203 29.9121 28.203C29.7324 28.203 29.5708 28.0498 29.5708 27.8392C29.5708 27.7626 29.5888 27.686 29.6426 27.6286L26.1761 23.5121C26.1222 23.5504 26.0683 23.5695 25.9965 23.5695C25.9785 23.5695 25.9606 23.5695 25.9606 23.5695L24.38 28.471C24.4877 28.5285 24.5416 28.6434 24.5416 28.7774C24.5416 28.9689 24.3979 29.1412 24.2004 29.1412C24.0208 29.1412 23.8591 28.988 23.8591 28.7774C23.8591 28.5859 24.0028 28.4136 24.2004 28.4136C24.2183 28.4136 24.2363 28.4136 24.2363 28.4136L25.8169 23.5121C25.763 23.4738 25.7271 23.4355 25.6912 23.3781L20.8416 25.1013C20.8416 25.1204 20.8416 25.1204 20.8416 25.1396C20.8416 25.331 20.6979 25.5033 20.5003 25.5033C20.3207 25.5033 20.1591 25.3502 20.1591 25.1396C20.1591 24.9481 20.3028 24.7758 20.5003 24.7758C20.6261 24.7758 20.7338 24.8524 20.7877 24.9481L25.6373 23.2249C25.6373 23.2249 25.6373 23.2249 25.6373 23.2058L15.7226 22.0187C15.6867 22.1719 15.543 22.2676 15.3993 22.2676C15.2197 22.2676 15.0581 22.1144 15.0581 21.9038C15.0581 21.8272 15.076 21.7698 15.112 21.7123L11.2682 17.5767C11.2144 17.615 11.1605 17.6341 11.1066 17.6341L10.5857 21.5783C10.7114 21.6358 10.8192 21.7698 10.8192 21.923C10.8192 22.1144 10.6755 22.2867 10.4779 22.2867C10.2983 22.2867 10.1367 22.1336 10.1367 21.923C10.1367 21.7315 10.2804 21.5783 10.46 21.5592L10.9629 17.615C10.8911 17.5767 10.8192 17.5384 10.7833 17.4618L8.32259 18.3426C8.32259 18.3617 8.32259 18.3809 8.32259 18.3809C8.32259 18.5723 8.1789 18.7446 7.98133 18.7446C7.80172 18.7446 7.64007 18.5915 7.64007 18.3809C7.64007 18.1894 7.78376 18.0171 7.98133 18.0171C8.10706 18.0171 8.21483 18.0937 8.26871 18.1894L10.7294 17.3087C10.7294 17.2895 10.7294 17.2704 10.7294 17.2704C10.7294 17.1555 10.7833 17.0597 10.8551 16.9832L9.95707 15.0877C9.92115 15.0877 9.90319 15.1068 9.86726 15.1068C9.68765 15.1068 9.526 14.9536 9.526 14.743C9.526 14.5324 9.66969 14.3792 9.86726 14.3792C10.0469 14.3792 10.2085 14.5324 10.2085 14.743C10.2085 14.8579 10.1546 14.9536 10.0828 15.0302L10.9809 16.9257C11.0168 16.9257 11.0347 16.9066 11.0707 16.9066C11.1246 16.9066 11.1784 16.9257 11.2323 16.9449L15.2736 11.737C15.2556 11.7179 15.2556 11.6987 15.2377 11.6796L13.1003 12.3497C13.1003 12.3689 13.1003 12.3689 13.1003 12.388C13.1003 12.5795 12.9566 12.7518 12.759 12.7518C12.5615 12.7518 12.4178 12.5986 12.4178 12.388C12.4178 12.1965 12.5615 12.0242 12.759 12.0242C12.8848 12.0242 12.9925 12.1008 13.0644 12.2157L15.2018 11.5456C15.2018 11.5264 15.2018 11.5264 15.2018 11.5073C15.2018 11.4115 15.2377 11.3158 15.3095 11.2584L12.7411 7.12272C12.7051 7.14187 12.6513 7.14187 12.6153 7.14187C12.4357 7.14187 12.2741 6.9887 12.2741 6.77808C12.2741 6.58662 12.4178 6.4143 12.6153 6.4143C12.6872 6.4143 12.759 6.43345 12.8129 6.47174L15.094 4.11672C15.0581 4.05928 15.0401 4.00184 15.0401 3.92526C15.0401 3.81038 15.076 3.71465 15.1479 3.65721L14.6809 2.83391C14.627 2.8722 14.5911 2.8722 14.5552 2.8722C14.3755 2.8722 14.2139 2.71903 14.2139 2.50842C14.2139 2.31695 14.3576 2.14464 14.5552 2.14464C14.7348 2.14464 14.8964 2.29781 14.8964 2.50842C14.8964 2.60415 14.8605 2.69988 14.7887 2.77647L15.2556 3.59977C15.2916 3.58062 15.3275 3.58062 15.3634 3.58062C15.3814 3.58062 15.3814 3.58062 15.3993 3.58062L15.7406 2.16378C15.6328 2.10634 15.543 1.99146 15.543 1.83829C15.543 1.64683 15.6867 1.47451 15.8843 1.47451C16.0819 1.47451 16.2256 1.62768 16.2256 1.83829C16.2256 2.0489 16.0819 2.20208 15.8843 2.20208H15.8663L15.543 3.63806C15.5969 3.67635 15.6508 3.71465 15.6688 3.77209L16.7285 3.4466C16.7285 3.42745 16.7285 3.42745 16.7285 3.4083C16.7285 3.21684 16.8722 3.04452 17.0697 3.04452C17.2494 3.04452 17.411 3.19769 17.411 3.4083C17.411 3.61892 17.2673 3.77209 17.0697 3.77209C16.944 3.77209 16.8183 3.6955 16.7644 3.58062L15.7047 3.90611C15.7047 3.92526 15.7047 3.92526 15.7047 3.94441C15.7047 4.02099 15.6867 4.09758 15.6328 4.15502L16.2615 4.95917C16.3154 4.94002 16.3692 4.92088 16.4231 4.92088C16.6027 4.92088 16.7644 5.07405 16.7644 5.28466C16.7644 5.47612 16.6207 5.64844 16.4231 5.64844C16.2435 5.64844 16.0819 5.49527 16.0819 5.28466C16.0819 5.20807 16.1178 5.11234 16.1537 5.0549L15.5251 4.25075C15.4712 4.28904 15.4173 4.30819 15.3455 4.30819C15.2736 4.30819 15.2018 4.28904 15.1479 4.25075L12.9027 6.60577C12.9386 6.66321 12.9566 6.72064 12.9566 6.79723C12.9566 6.89296 12.9207 6.9887 12.8488 7.04613L15.3993 11.2009C15.4353 11.1818 15.4891 11.1818 15.5251 11.1818C15.543 11.1818 15.543 11.1818 15.561 11.1818L16.1178 9.32457C16.01 9.26713 15.9382 9.15225 15.9382 9.01822C15.9382 8.82676 16.0819 8.65444 16.2794 8.65444C16.4591 8.65444 16.6207 8.80761 16.6207 9.01822C16.6207 9.20969 16.477 9.38201 16.2794 9.38201C16.2615 9.38201 16.2615 9.38201 16.2435 9.38201L15.6867 11.2392C15.7586 11.2775 15.8124 11.3349 15.8304 11.4115L17.7523 11.0286C17.7523 10.8371 17.9139 10.6648 18.0935 10.6648C18.2731 10.6648 18.4348 10.818 18.4348 11.0286C18.4348 11.2201 18.2911 11.3924 18.0935 11.3924C17.9498 11.3924 17.8241 11.2967 17.7882 11.1626L15.8663 11.5456C15.8663 11.6604 15.8124 11.7562 15.7226 11.8328L16.4231 13.4411C16.4411 13.4411 16.477 13.4219 16.495 13.4219C16.6746 13.4219 16.8362 13.5751 16.8362 13.7857C16.8362 13.9963 16.6926 14.1495 16.495 14.1495C16.2974 14.1495 16.1717 13.9772 16.1717 13.7857C16.1717 13.6708 16.2256 13.5559 16.3154 13.4985L15.6149 11.8902C15.5969 11.8902 15.561 11.9093 15.543 11.9093C15.4891 11.9093 15.4353 11.8902 15.3814 11.871L11.3401 17.0597C11.376 17.098 11.394 17.1555 11.4119 17.2129L14.1061 17.1746C14.142 17.0023 14.2678 16.8874 14.4294 16.8874C14.609 16.8874 14.7707 17.0406 14.7707 17.2512C14.7707 17.4427 14.627 17.615 14.4294 17.615C14.2678 17.615 14.1241 17.5001 14.1061 17.3278L11.4119 17.3661C11.4119 17.4044 11.394 17.4618 11.3581 17.5001L15.2377 21.6166C15.2916 21.5783 15.3634 21.5592 15.4173 21.5592C15.5969 21.5592 15.7406 21.7123 15.7586 21.8847L25.6732 23.0717C25.6912 23.0334 25.7091 22.9952 25.7271 22.9569L23.3203 19.836C23.2664 19.8551 23.2125 19.8743 23.1586 19.8743C22.979 19.8743 22.8174 19.7211 22.8174 19.5105C22.8174 19.2999 22.961 19.1467 23.1586 19.1467C23.3382 19.1467 23.4999 19.2999 23.4999 19.5105C23.4999 19.6062 23.464 19.6828 23.428 19.7403L25.8348 22.8611C25.8887 22.842 25.9426 22.8228 25.9965 22.8228C26.0145 22.8228 26.0145 22.8228 26.0324 22.8228L27.0203 19.4339C26.9125 19.3765 26.8407 19.2616 26.8407 19.1084C26.8407 18.917 26.9844 18.7446 27.1819 18.7446C27.3616 18.7446 27.5232 18.8978 27.5232 19.1084C27.5232 19.319 27.3795 19.4722 27.1819 19.4722C27.164 19.4722 27.164 19.4722 27.146 19.4722L26.1581 22.8611C26.1941 22.8803 26.212 22.8994 26.248 22.9377L29.2116 20.9848C29.1936 20.9465 29.1936 20.9082 29.1936 20.8699C29.1936 20.6784 29.3373 20.5061 29.5349 20.5061C29.7145 20.5061 29.8761 20.6593 29.8761 20.8699C29.8761 21.0614 29.7324 21.2337 29.5349 21.2337C29.4451 21.2337 29.3553 21.1954 29.2834 21.1188L26.3198 23.0717C26.3378 23.11 26.3378 23.1292 26.3378 23.1675L30.6305 23.7227C30.6844 23.5887 30.8101 23.4738 30.9538 23.4738C31.0616 23.4738 31.1514 23.5313 31.2232 23.6078L35.1208 21.406C35.1208 21.3677 35.1029 21.3486 35.1029 21.3103C35.1029 21.1571 35.1927 21.0231 35.3364 20.9656L34.582 15.1642C34.4024 15.1451 34.2587 14.9919 34.2587 14.8005C34.2587 14.609 34.4024 14.4367 34.5999 14.4367C34.6718 14.4367 34.7436 14.4558 34.7975 14.5133L36.9888 12.4263C36.9529 12.3689 36.9349 12.3114 36.9349 12.2348C36.9349 12.0434 37.0786 11.871 37.2762 11.871C37.4558 11.871 37.6174 12.0242 37.6174 12.2348C37.6174 12.4072 37.4738 12.5795 37.2762 12.5795Z" fill="#C9B44A"/>
<path d="M53.4589 23.6C53.6349 23.6 53.7869 23.612 53.9149 23.636C54.0429 23.66 54.1549 23.708 54.2509 23.78C54.3469 23.844 54.4309 23.936 54.5029 24.056C54.5829 24.168 54.6629 24.32 54.7429 24.512L57.2389 30.272C57.2709 30.344 57.3269 30.38 57.4069 30.38H57.5509C57.6309 30.38 57.6869 30.344 57.7189 30.272L60.2149 24.512C60.2949 24.32 60.3709 24.168 60.4429 24.056C60.5229 23.936 60.6109 23.844 60.7069 23.78C60.8029 23.708 60.9109 23.66 61.0309 23.636C61.1589 23.612 61.3109 23.6 61.4869 23.6H62.7709C63.1869 23.6 63.4669 23.696 63.6109 23.888C63.7549 24.072 63.8269 24.392 63.8269 24.848V31.736C63.8269 31.912 63.7349 32 63.5509 32H62.3269C62.1509 32 62.0629 31.912 62.0629 31.736V25.472C62.0629 25.392 62.0309 25.352 61.9669 25.352H61.8589C61.7789 25.352 61.7269 25.384 61.7029 25.448L59.2789 30.824C59.1829 31.04 59.0829 31.224 58.9789 31.376C58.8829 31.52 58.7749 31.64 58.6549 31.736C58.5429 31.832 58.4109 31.9 58.2589 31.94C58.1149 31.98 57.9429 32 57.7429 32H57.1669C56.9669 32 56.7909 31.98 56.6389 31.94C56.4949 31.9 56.3629 31.832 56.2429 31.736C56.1309 31.64 56.0229 31.52 55.9189 31.376C55.8229 31.224 55.7269 31.04 55.6309 30.824L53.2069 25.448C53.1829 25.384 53.1309 25.352 53.0509 25.352H52.9429C52.8789 25.352 52.8469 25.392 52.8469 25.472V31.736C52.8469 31.912 52.7589 32 52.5829 32H51.3589C51.1749 32 51.0829 31.912 51.0829 31.736V24.848C51.0829 24.392 51.1549 24.072 51.2989 23.888C51.4429 23.696 51.7269 23.6 52.1509 23.6H53.4589ZM74.3189 23.6C74.5029 23.6 74.5949 23.688 74.5949 23.864V25.004C74.5949 25.18 74.5029 25.268 74.3189 25.268H69.0749C68.7629 25.268 68.5029 25.296 68.2949 25.352C68.0949 25.4 67.9309 25.488 67.8029 25.616C67.6829 25.736 67.5989 25.904 67.5509 26.12C67.5029 26.328 67.4789 26.588 67.4789 26.9V27.02H74.2589C74.4349 27.02 74.5229 27.108 74.5229 27.284V28.232C74.5229 28.408 74.4349 28.496 74.2589 28.496H67.4789V28.7C67.4789 29.012 67.5029 29.276 67.5509 29.492C67.5989 29.7 67.6829 29.868 67.8029 29.996C67.9309 30.116 68.0949 30.204 68.2949 30.26C68.5029 30.308 68.7629 30.332 69.0749 30.332H74.3189C74.5029 30.332 74.5949 30.42 74.5949 30.596V31.736C74.5949 31.912 74.5029 32 74.3189 32H69.0389C68.4309 32 67.9149 31.944 67.4909 31.832C67.0669 31.72 66.7189 31.54 66.4469 31.292C66.1829 31.036 65.9869 30.708 65.8589 30.308C65.7389 29.9 65.6789 29.408 65.6789 28.832V26.768C65.6789 26.192 65.7389 25.704 65.8589 25.304C65.9869 24.904 66.1829 24.58 66.4469 24.332C66.7189 24.076 67.0669 23.892 67.4909 23.78C67.9149 23.66 68.4309 23.6 69.0389 23.6H74.3189ZM84.6702 23.6C84.8462 23.6 84.9342 23.688 84.9342 23.864V25.004C84.9342 25.18 84.8462 25.268 84.6702 25.268H78.6582C78.4262 25.268 78.2622 25.328 78.1662 25.448C78.0702 25.568 78.0222 25.732 78.0222 25.94V26.348C78.0222 26.796 78.2302 27.02 78.6462 27.02H83.1462C83.8422 27.02 84.3662 27.2 84.7182 27.56C85.0702 27.912 85.2462 28.42 85.2462 29.084V30.044C85.2462 30.628 85.0742 31.1 84.7302 31.46C84.3862 31.82 83.8502 32 83.1222 32H76.4742C76.2902 32 76.1982 31.912 76.1982 31.736V30.596C76.1982 30.42 76.2902 30.332 76.4742 30.332H82.7742C83.0062 30.332 83.1702 30.272 83.2662 30.152C83.3622 30.032 83.4102 29.868 83.4102 29.66V29.168C83.4102 28.72 83.2022 28.496 82.7862 28.496H78.2862C77.5902 28.496 77.0662 28.32 76.7142 27.968C76.3622 27.608 76.1862 27.096 76.1862 26.432V25.556C76.1862 24.972 76.3582 24.5 76.7022 24.14C77.0462 23.78 77.5822 23.6 78.3102 23.6H84.6702ZM95.5233 23.6C95.7073 23.6 95.7993 23.688 95.7993 23.864V25.004C95.7993 25.18 95.7073 25.268 95.5233 25.268H90.2793C89.9673 25.268 89.7073 25.296 89.4993 25.352C89.2993 25.4 89.1353 25.488 89.0073 25.616C88.8873 25.736 88.8033 25.904 88.7553 26.12C88.7073 26.328 88.6833 26.588 88.6833 26.9V27.02H95.4633C95.6393 27.02 95.7273 27.108 95.7273 27.284V28.232C95.7273 28.408 95.6393 28.496 95.4633 28.496H88.6833V28.7C88.6833 29.012 88.7073 29.276 88.7553 29.492C88.8033 29.7 88.8873 29.868 89.0073 29.996C89.1353 30.116 89.2993 30.204 89.4993 30.26C89.7073 30.308 89.9673 30.332 90.2793 30.332H95.5233C95.7073 30.332 95.7993 30.42 95.7993 30.596V31.736C95.7993 31.912 95.7073 32 95.5233 32H90.2433C89.6353 32 89.1193 31.944 88.6953 31.832C88.2713 31.72 87.9233 31.54 87.6513 31.292C87.3873 31.036 87.1913 30.708 87.0633 30.308C86.9433 29.9 86.8833 29.408 86.8833 28.832V26.768C86.8833 26.192 86.9433 25.704 87.0633 25.304C87.1913 24.904 87.3873 24.58 87.6513 24.332C87.9233 24.076 88.2713 23.892 88.6953 23.78C89.1193 23.66 89.6353 23.6 90.2433 23.6H95.5233ZM98.9386 30.32C99.1146 30.32 99.2026 30.408 99.2026 30.584V31.736C99.2026 31.912 99.1146 32 98.9386 32H97.7626C97.5786 32 97.4866 31.912 97.4866 31.736V30.584C97.4866 30.408 97.5786 30.32 97.7626 30.32H98.9386ZM102.666 23.6C102.842 23.6 102.93 23.688 102.93 23.864V31.736C102.93 31.912 102.842 32 102.666 32H101.37C101.186 32 101.094 31.912 101.094 31.736V23.864C101.094 23.688 101.186 23.6 101.37 23.6H102.666ZM111.859 23.6C112.467 23.6 112.983 23.66 113.407 23.78C113.839 23.892 114.187 24.076 114.451 24.332C114.723 24.58 114.919 24.904 115.039 25.304C115.159 25.704 115.219 26.192 115.219 26.768V28.832C115.219 29.408 115.159 29.9 115.039 30.308C114.919 30.708 114.723 31.036 114.451 31.292C114.187 31.54 113.839 31.72 113.407 31.832C112.983 31.944 112.467 32 111.859 32H108.151C107.543 32 107.027 31.944 106.603 31.832C106.179 31.72 105.831 31.54 105.559 31.292C105.295 31.036 105.099 30.708 104.971 30.308C104.851 29.9 104.791 29.408 104.791 28.832V26.768C104.791 26.192 104.851 25.704 104.971 25.304C105.099 24.904 105.295 24.58 105.559 24.332C105.831 24.076 106.179 23.892 106.603 23.78C107.027 23.66 107.543 23.6 108.151 23.6H111.859ZM106.627 28.7C106.627 29.012 106.651 29.276 106.699 29.492C106.755 29.7 106.843 29.868 106.963 29.996C107.083 30.116 107.243 30.204 107.443 30.26C107.651 30.308 107.911 30.332 108.223 30.332H111.787C112.099 30.332 112.355 30.308 112.555 30.26C112.763 30.204 112.927 30.116 113.047 29.996C113.167 29.868 113.251 29.7 113.299 29.492C113.355 29.276 113.383 29.012 113.383 28.7V26.9C113.383 26.588 113.355 26.328 113.299 26.12C113.251 25.904 113.167 25.736 113.047 25.616C112.927 25.488 112.763 25.4 112.555 25.352C112.355 25.296 112.099 25.268 111.787 25.268H108.223C107.911 25.268 107.651 25.296 107.443 25.352C107.243 25.4 107.083 25.488 106.963 25.616C106.843 25.736 106.755 25.904 106.699 26.12C106.651 26.328 106.627 26.588 106.627 26.9V28.7ZM122.627 23.6C122.707 23.6 122.763 23.652 122.795 23.756L124.739 30.212C124.747 30.268 124.779 30.296 124.835 30.296H124.895C124.943 30.296 124.975 30.268 124.991 30.212L126.935 24.296C127.023 24.024 127.139 23.84 127.283 23.744C127.427 23.648 127.607 23.6 127.823 23.6H129.011C129.275 23.6 129.475 23.652 129.611 23.756C129.755 23.86 129.871 24.04 129.959 24.296L131.951 30.212C131.967 30.268 131.999 30.296 132.047 30.296H132.119C132.167 30.296 132.199 30.268 132.215 30.212L134.111 23.756C134.127 23.692 134.151 23.652 134.183 23.636C134.223 23.612 134.263 23.6 134.303 23.6H135.923C135.987 23.6 136.023 23.628 136.031 23.684C136.047 23.74 136.043 23.804 136.019 23.876L133.715 31.088C133.603 31.448 133.479 31.692 133.343 31.82C133.207 31.94 133.023 32 132.791 32H131.387C131.155 32 130.971 31.936 130.835 31.808C130.707 31.68 130.583 31.44 130.463 31.088L128.579 25.388C128.571 25.332 128.539 25.304 128.483 25.304H128.435C128.379 25.304 128.347 25.332 128.339 25.388L126.431 31.088C126.311 31.44 126.183 31.68 126.047 31.808C125.919 31.936 125.739 32 125.507 32H124.139C124.003 32 123.883 31.988 123.779 31.964C123.683 31.94 123.595 31.896 123.515 31.832C123.435 31.76 123.363 31.664 123.299 31.544C123.243 31.424 123.187 31.272 123.131 31.088L120.923 23.876C120.899 23.796 120.891 23.732 120.899 23.684C120.915 23.628 120.955 23.6 121.019 23.6H122.627ZM141.448 23.6C141.752 23.6 142.008 23.664 142.216 23.792C142.424 23.912 142.628 24.152 142.828 24.512L146.8 31.724C146.84 31.804 146.848 31.872 146.824 31.928C146.808 31.976 146.752 32 146.656 32H145.132C144.996 32 144.904 31.948 144.856 31.844L144.004 30.296H138.364L137.536 31.844C137.48 31.948 137.388 32 137.26 32H135.7C135.596 32 135.532 31.976 135.508 31.928C135.492 31.872 135.504 31.804 135.544 31.724L139.48 24.512C139.68 24.152 139.876 23.912 140.068 23.792C140.26 23.664 140.484 23.6 140.74 23.6H141.448ZM139.12 28.904H143.248L141.34 25.388C141.308 25.332 141.264 25.304 141.208 25.304H141.136C141.08 25.304 141.036 25.332 141.004 25.388L139.12 28.904ZM149.243 23.6C149.419 23.6 149.507 23.688 149.507 23.864V28.652C149.507 28.972 149.531 29.24 149.579 29.456C149.635 29.664 149.723 29.832 149.843 29.96C149.963 30.08 150.123 30.168 150.323 30.224C150.531 30.272 150.791 30.296 151.103 30.296H155.963C156.139 30.296 156.227 30.384 156.227 30.56V31.736C156.227 31.912 156.139 32 155.963 32H151.031C150.423 32 149.907 31.944 149.483 31.832C149.059 31.72 148.711 31.54 148.439 31.292C148.175 31.036 147.979 30.708 147.851 30.308C147.731 29.9 147.671 29.408 147.671 28.832V23.864C147.671 23.688 147.763 23.6 147.947 23.6H149.243ZM159.048 23.6C159.224 23.6 159.312 23.688 159.312 23.864V28.652C159.312 28.972 159.336 29.24 159.384 29.456C159.44 29.664 159.528 29.832 159.648 29.96C159.768 30.08 159.928 30.168 160.128 30.224C160.336 30.272 160.596 30.296 160.908 30.296H165.768C165.944 30.296 166.032 30.384 166.032 30.56V31.736C166.032 31.912 165.944 32 165.768 32H160.836C160.228 32 159.712 31.944 159.288 31.832C158.864 31.72 158.516 31.54 158.244 31.292C157.98 31.036 157.784 30.708 157.656 30.308C157.536 29.9 157.476 29.408 157.476 28.832V23.864C157.476 23.688 157.568 23.6 157.752 23.6H159.048ZM176.013 23.6C176.197 23.6 176.289 23.688 176.289 23.864V25.004C176.289 25.18 176.197 25.268 176.013 25.268H170.769C170.457 25.268 170.197 25.296 169.989 25.352C169.789 25.4 169.625 25.488 169.497 25.616C169.377 25.736 169.293 25.904 169.245 26.12C169.197 26.328 169.173 26.588 169.173 26.9V27.02H175.953C176.129 27.02 176.217 27.108 176.217 27.284V28.232C176.217 28.408 176.129 28.496 175.953 28.496H169.173V28.7C169.173 29.012 169.197 29.276 169.245 29.492C169.293 29.7 169.377 29.868 169.497 29.996C169.625 30.116 169.789 30.204 169.989 30.26C170.197 30.308 170.457 30.332 170.769 30.332H176.013C176.197 30.332 176.289 30.42 176.289 30.596V31.736C176.289 31.912 176.197 32 176.013 32H170.733C170.125 32 169.609 31.944 169.185 31.832C168.761 31.72 168.413 31.54 168.141 31.292C167.877 31.036 167.681 30.708 167.553 30.308C167.433 29.9 167.373 29.408 167.373 28.832V26.768C167.373 26.192 167.433 25.704 167.553 25.304C167.681 24.904 167.877 24.58 168.141 24.332C168.413 24.076 168.761 23.892 169.185 23.78C169.609 23.66 170.125 23.6 170.733 23.6H176.013ZM187.157 23.6C187.341 23.6 187.433 23.688 187.433 23.864V25.04C187.433 25.224 187.341 25.316 187.157 25.316H183.389V31.736C183.389 31.912 183.301 32 183.125 32H181.817C181.641 32 181.553 31.912 181.553 31.736V25.316H177.785C177.601 25.316 177.509 25.224 177.509 25.04V23.864C177.509 23.688 177.601 23.6 177.785 23.6H187.157Z" fill="#C9B44A"/>
</svg>
