<svg width="168" height="35" viewBox="0 0 168 35" fill="none" xmlns="http://www.w3.org/2000/svg">
<path d="M8.93306 10.2626C8.53791 10.7605 8.08888 11.1051 7.568 11.2966C7.26266 11.4114 6.95732 11.5263 6.61605 11.5072C6.05925 11.488 5.62818 11.2008 5.48449 10.5498C5.41265 10.2244 5.5743 9.82228 5.91556 9.59252C5.98741 9.53508 6.05926 9.49679 6.1311 9.4585C6.31071 10.2818 7.29858 10.569 7.94519 10.4924C8.26849 10.4541 8.57383 10.3775 8.93306 10.2626Z" fill="#C9B44A"/>
<path d="M41.084 11.2201C40.3476 10.9903 39.5932 10.8371 38.8388 10.7414C37.9408 10.6457 37.0427 10.6457 36.1446 10.8563C35.4621 11.0286 34.8514 11.2967 34.2766 11.7179C32.9116 12.7326 32.5344 14.1686 32.6781 15.8535C32.732 16.4662 32.8757 17.0597 33.0553 17.6533C33.2169 18.1894 33.3427 18.7446 33.4145 19.2999C33.5223 19.97 33.5941 20.6401 33.4504 21.3294C33.3786 21.674 33.2708 21.9995 32.9475 22.1527C32.6062 22.3442 32.2829 22.2101 31.9596 22.0761C31.5645 21.923 31.2771 21.5975 31.0077 21.272C30.415 20.5444 29.8222 19.8168 29.1218 19.185C28.7446 18.8404 28.4033 18.4766 27.9543 18.2277C27.3975 17.9022 26.7868 17.7299 26.1402 17.6916C25.4936 17.6533 24.8649 17.7107 24.2363 17.8256C23.7334 17.9213 23.2484 18.0554 22.7455 18.2085C22.1348 18.4 21.5241 18.6298 20.9314 18.8404C20.5722 18.9552 20.2309 19.0893 19.8717 19.1659C19.3508 19.2424 18.8479 19.185 18.363 19.0127C18.0576 18.917 17.7702 18.7829 17.5367 18.534C17.429 18.4191 17.3751 18.3043 17.411 18.1511C17.4469 17.9979 17.5727 17.9596 17.6984 17.9405C18.0935 17.8639 18.5066 17.8065 18.9018 17.6533C19.1712 17.5576 19.4586 17.4427 19.728 17.3087C19.71 17.2512 19.6741 17.2512 19.6562 17.2512C19.3329 17.1746 18.9916 17.1172 18.6683 17.0406C18.0756 16.9066 17.5008 16.7725 16.926 16.5619C16.6746 16.4662 16.4231 16.3705 16.2256 16.1599C15.9921 15.911 16.028 15.6429 16.2974 15.4706C16.6566 15.2408 17.0518 15.1834 17.4469 15.126C17.9319 15.0494 18.4168 15.0302 18.9198 15.0302C19.261 15.0302 19.6202 15.0111 19.9615 14.9919C19.9076 14.9536 19.8537 14.9153 19.7999 14.9153C19.4227 14.8579 19.0634 14.743 18.7042 14.609C18.3989 14.4941 18.0935 14.3409 17.878 14.0537C17.6625 13.7857 17.8062 13.5942 17.9858 13.4602C18.0576 13.4219 18.1474 13.4028 18.2372 13.3645C18.6503 13.2496 19.0814 13.2113 19.5125 13.1922C20.4105 13.1347 21.3086 13.1156 22.2246 13.1156C22.3683 13.1156 22.512 13.1156 22.6557 13.1156C22.2067 13.0007 21.7576 12.9241 21.3086 12.8284C20.8955 12.7518 20.4824 12.6561 20.0872 12.5795C19.728 12.5029 19.3867 12.4072 19.0634 12.254C19.0096 12.2348 18.9377 12.2348 18.9377 12.1582C18.9377 12.0817 19.0096 12.0242 19.0814 11.9859C19.1173 11.9668 19.1712 11.9668 19.2071 11.9668C19.4047 11.9668 19.6202 11.9859 19.8178 11.9859C20.0693 11.9859 20.3207 11.9859 20.6081 11.9859C20.3028 11.6987 19.9974 11.4307 19.6921 11.1435C19.6382 11.086 19.5843 11.0477 19.6023 10.9712C19.6382 10.8946 19.6921 10.8563 19.7819 10.8563C20.4465 10.7988 21.0931 10.7606 21.7576 10.7031C22.045 10.684 22.3144 10.6457 22.6198 10.6265C22.5479 10.5691 22.4581 10.5882 22.3863 10.5691C21.8115 10.5116 21.2547 10.4351 20.6979 10.3393C20.2489 10.2627 19.7999 10.167 19.3508 10.0521C18.9557 9.9564 18.5426 9.87981 18.2013 9.63091C17.9678 9.45859 17.9139 9.30542 18.0396 9.01822C18.2552 8.55871 18.6503 8.3481 19.0634 8.17578C19.71 7.92687 20.3746 7.81199 21.0571 7.79285C21.129 7.79285 21.2188 7.79285 21.2727 7.75455C21.0571 7.71626 20.8236 7.67797 20.5902 7.62053C19.9974 7.4865 19.4047 7.31419 18.8299 7.08443C18.345 6.89296 17.878 6.68235 17.4828 6.29942C17.1955 6.01223 17.2134 5.66759 17.5367 5.41868C18.0396 5.03575 18.6144 4.84429 19.1892 4.65283C19.3688 4.59539 19.5664 4.53795 19.7999 4.46136C19.5843 4.38477 19.4227 4.34648 19.2431 4.28904C18.8299 4.13587 18.4348 3.94441 18.1295 3.59977C17.86 3.29343 17.9319 2.96793 18.2911 2.83391C18.4707 2.75732 18.6683 2.73818 18.8479 2.71903C19.3149 2.66159 19.7639 2.6233 20.2309 2.64244C20.2668 2.64244 20.3028 2.66159 20.3387 2.60415C20.195 2.54671 20.0693 2.48927 19.9256 2.43183C19.5664 2.27866 19.2071 2.10634 18.9198 1.8C18.7042 1.5511 18.7042 1.24475 18.9377 1.01499C19.1353 0.804383 19.4047 0.727797 19.6741 0.689504C19.8537 0.670357 20.0513 0.651211 20.2489 0.651211C20.1591 0.632064 20.0693 0.574625 19.9974 0.555478C19.2431 0.38316 18.5066 0.210842 17.7523 0.115109C16.9979 0.0193768 16.2435 -0.0572091 15.4891 0.0576698C15.2018 0.115109 14.8964 0.172549 14.6809 0.402306C14.4474 0.632064 14.2678 0.880968 14.1241 1.18731C13.8367 1.74256 13.6751 2.3361 13.693 2.96793C13.711 3.21684 13.7828 3.46574 13.8187 3.71465C13.8726 4.13587 13.8367 4.36563 13.3877 4.49965C13.1721 4.55709 12.9566 4.53795 12.7411 4.57624C12.3459 4.63368 11.9328 4.59539 11.5556 4.69112C11.2862 4.74856 11.0527 4.86344 10.8731 5.11234C10.6576 5.43783 10.6216 5.82076 10.6576 6.20369C10.6755 6.37601 10.6216 6.51003 10.4959 6.62491C10.1906 6.89296 9.88523 7.14187 9.56192 7.37163C9.31046 7.56309 9.05901 7.71626 8.7357 7.75455C8.52017 7.79285 8.39444 7.96517 8.35852 8.21407C8.30463 8.57785 8.26871 8.94164 8.21483 9.30542C8.19687 9.4203 8.23279 9.45859 8.32259 9.47774C8.59201 9.51603 8.84347 9.59262 9.11289 9.55432C9.47212 9.49689 9.79542 9.36286 9.93911 8.96078C9.99299 8.78846 10.0828 8.61615 10.2445 8.50127C10.5498 8.29066 10.8731 8.21407 11.2323 8.19492C11.2862 8.19492 11.3401 8.23322 11.376 8.27151C11.4299 8.32895 11.4299 8.36724 11.3581 8.40554C11.2323 8.46298 11.1425 8.53956 11.0347 8.63529C10.6935 8.94164 10.3702 9.26713 10.1726 9.68835C10.011 10.033 10.0648 10.2245 10.3702 10.3968C10.5318 10.4925 10.6935 10.5499 10.8551 10.6074C11.1425 10.7031 11.5197 10.4542 11.5556 10.1287C11.6095 9.74579 11.6634 9.36286 11.8071 8.99908C11.8969 8.76932 12.0585 8.65444 12.2741 8.63529C12.5255 8.61615 12.795 8.71188 12.9746 8.99908C13.1721 9.28627 13.1542 9.59262 12.9925 9.89896C12.7411 10.3776 12.3459 10.7031 11.9508 11.0095C11.1605 11.6413 10.2983 12.1774 9.50804 12.8284C9.07697 13.1922 8.66386 13.5751 8.34056 14.0537C8.12502 14.3601 8.05317 14.6664 8.14298 15.0494C8.1789 15.2217 8.26871 15.3557 8.37648 15.4897C8.23279 15.528 8.10706 15.4897 7.98133 15.528C7.49638 15.6621 7.0653 15.911 6.67016 16.2364C6.4187 16.4471 6.20316 16.696 6.22112 17.0789C6.22112 17.1555 6.1852 17.1746 6.11336 17.1938C6.00559 17.2129 5.91578 17.2129 5.80801 17.1938C5.52063 17.1172 5.23325 17.0597 4.96383 16.9832C4.47888 16.8491 4.01189 16.7343 3.52693 16.6002C3.25751 16.5236 3.04198 16.5811 2.80848 16.7151C2.17984 17.1172 1.56915 17.5384 0.976429 17.9788C0.653126 18.2277 0.347784 18.5149 0.168172 18.8978C-0.0114413 19.2616 -0.0653251 19.6445 0.0963264 20.0275C0.527397 19.702 0.958468 19.3956 1.37158 19.1084C1.46138 19.051 1.49731 18.9935 1.47935 18.8787C1.46138 18.7063 1.46138 18.5149 1.44342 18.3426C1.44342 18.2468 1.47935 18.1894 1.55119 18.1319C1.7308 18.0362 1.89245 17.9213 2.09003 17.8448C2.88033 17.481 3.68858 17.3278 4.46092 17.883C5.35898 18.534 5.96967 19.3765 5.87986 20.621C5.82598 21.2528 5.48471 21.7506 4.90995 21.9995C4.29927 22.2676 3.6347 22.3059 3.00605 22.4208C2.68275 22.4782 2.41333 22.5931 2.16187 22.8228C1.71284 23.2441 1.46138 23.761 1.4075 24.3928C1.37158 24.8332 1.46138 25.2544 1.74876 25.5991C2.30556 26.2118 3.00605 26.4607 3.77839 26.3649C4.35315 26.2883 4.76626 25.9629 4.9818 25.3885C5.0716 25.1396 5.03568 24.8907 4.83811 24.7375C4.73034 24.6418 4.60461 24.6035 4.46092 24.6609C4.31723 24.6992 4.35315 24.8332 4.31723 24.9289C4.28131 25.063 4.22742 25.1779 4.15558 25.2736C3.90412 25.5799 3.50897 25.6182 3.13178 25.4459C2.37741 25.1013 2.21576 24.3163 2.46722 23.5887C2.62887 23.1292 2.97013 22.8611 3.36528 22.6697C4.01189 22.3442 4.71238 22.191 5.41287 22.0187C6.16724 21.8272 6.43666 21.5017 6.43666 20.6784C6.43666 20.2189 6.29297 19.8168 6.14928 19.3956C6.13132 19.319 6.05947 19.2616 6.16724 19.2042C6.27501 19.1659 6.31093 19.2424 6.32889 19.319C6.49054 19.7211 6.70608 20.0849 6.90365 20.4678C7.28084 21.1762 7.83764 21.6166 8.57405 21.8081C8.71774 21.8464 8.77163 21.9612 8.75366 22.1144C8.7357 22.191 8.71774 22.2484 8.68182 22.325C8.48425 22.9186 8.35852 23.5504 8.46628 24.1631C8.52017 24.4886 8.39444 24.6035 8.19687 24.7183C8.1789 24.7375 8.14298 24.7566 8.12502 24.7566C7.55026 25.0438 7.13715 25.4842 6.79589 26.0394C6.742 26.1352 6.72404 26.1926 6.79589 26.2883C7.47841 27.3414 8.07114 28.471 8.7357 29.5241C8.95124 29.8496 9.22066 30.0794 9.63377 30.0794C9.90319 30.0794 10.1726 30.1751 10.4241 30.3091C10.6037 30.4048 10.7833 30.5389 10.9809 30.6537C10.9629 30.3474 10.8911 30.0602 10.7474 29.8113C10.6037 29.5624 10.4241 29.3326 10.2445 29.1029C10.0469 28.8731 10.0469 28.8731 9.77746 28.9689C9.72357 28.988 9.66969 29.0072 9.61581 29.0263C9.32843 29.1412 9.07697 29.0454 8.93328 28.7582C8.62794 28.1647 8.30463 27.552 7.99929 26.9585C7.92745 26.8245 7.87356 26.6713 7.90948 26.5181C7.99929 26.0969 8.16094 25.7522 8.52017 25.5225C8.86143 25.3119 9.22066 25.1587 9.59785 25.063C10.2445 24.8907 10.8731 24.8332 11.5197 25.0247C11.9508 25.1396 12.2741 25.4076 12.4178 25.8671C12.4896 26.116 12.5255 26.4032 12.5435 26.6713C12.6333 27.4946 12.7231 28.3179 12.9207 29.1412C13.0464 29.6773 13.2799 30.1559 13.693 30.5197C14.16 30.9409 14.7168 31.1707 15.3455 31.1898C16.0459 31.2281 16.6566 30.9984 17.0877 30.3857C17.3392 30.0411 17.4469 29.639 17.2853 29.2178C17.1057 28.7008 16.7285 28.3753 16.2076 28.337C15.9382 28.3179 15.6867 28.3945 15.4532 28.6051C15.6688 28.6242 15.8484 28.6817 15.9921 28.7965C16.2615 28.9689 16.4231 29.2369 16.4052 29.5815C16.3872 29.9453 16.1537 30.1368 15.8304 30.2517C15.5251 30.3474 15.2197 30.3283 14.9323 30.2325C14.4833 30.0985 14.142 29.8304 13.9265 29.3709C13.693 28.8731 13.5852 28.3179 13.4775 27.7818C13.3518 27.0734 13.1721 26.4032 12.9566 25.7331C12.9027 25.5416 12.8668 25.3693 12.8848 25.1779C12.9207 24.8715 13.1183 24.7183 13.3877 24.7949C13.4775 24.8141 13.5852 24.8524 13.6751 24.8907C14.1061 25.0247 14.5192 25.1587 14.9683 25.2353C15.3814 25.2927 15.8124 25.2927 16.2256 25.3119C16.962 25.331 17.6984 25.331 18.4348 25.2544C18.7761 25.2161 18.9018 25.2927 19.0096 25.6374C19.0096 25.6565 19.0275 25.6757 19.0455 25.6948C19.5304 26.8053 20.213 27.7435 21.129 28.4902C21.4882 28.7965 21.9013 29.0071 22.3504 29.0837C22.53 29.1029 22.7096 29.0646 22.9251 29.1795C22.8173 29.2178 22.7455 29.2561 22.6557 29.2752C22.1707 29.4284 21.7038 29.5624 21.2188 29.7347C20.6261 29.9262 20.0513 30.1559 19.4586 30.3474C19.0096 30.5006 18.5785 30.7112 18.2372 31.075C17.9319 31.4005 17.7882 31.7834 17.7882 32.2429C17.7882 32.3578 17.8062 32.3961 17.9319 32.3386C18.4528 32.128 18.9736 31.9174 19.4945 31.7068C19.5664 31.6685 19.6023 31.6302 19.6202 31.5345C19.6741 30.9409 20.0333 30.5963 20.5363 30.424C21.2368 30.1751 21.9552 30.1751 22.6916 30.1751C23.2843 30.1751 23.8771 30.2325 24.4518 30.3283C24.9907 30.424 25.5475 30.5197 26.0504 30.7878C26.7329 31.1324 27.1281 31.6685 27.0921 32.4727C27.0921 32.7982 26.9844 33.1236 26.7149 33.3343C26.5713 33.43 26.4455 33.4683 26.2659 33.3917C26.0863 33.3151 25.9606 33.1619 25.8708 32.9896C25.8348 32.913 25.7989 32.8747 25.745 32.9705C25.6373 33.1619 25.5654 33.3534 25.6193 33.5832C25.745 34.0235 26.1402 34.3107 26.6072 34.3299C27.0921 34.349 27.4334 34.0044 27.5591 33.6023C27.7208 33.1236 27.6489 32.6258 27.5232 32.1472C27.3795 31.5919 27.1101 31.1133 26.679 30.7303C26.6072 30.6729 26.6072 30.6155 26.679 30.5772C26.8048 30.4814 26.8586 30.3474 26.8586 30.1942C26.8946 29.9645 26.9305 29.7539 27.0023 29.5433C27.1819 29.0454 27.3795 28.9497 27.7747 29.0837C28.2955 29.2561 28.6727 29.639 28.9062 30.1751C29.1218 30.6346 29.2116 31.1516 29.5169 31.5919C29.7145 31.8791 29.8222 32.2429 30.0378 32.5301C30.397 33.0088 30.8999 33.2385 31.4028 33.4683C32.1033 33.7746 32.714 34.1958 33.0194 35C33.2708 34.6362 33.2349 34.2724 33.1451 33.8895C33.0373 33.4683 32.8218 33.1236 32.5164 32.8173C32.1931 32.511 31.9596 32.128 31.7441 31.7068C31.7261 31.7451 31.7082 31.7642 31.6902 31.7834C31.5286 31.994 31.3669 32.2046 31.0975 32.2429C30.7562 32.3003 30.5227 32.0897 30.3431 31.8217C30.0917 31.4388 29.9839 31.0175 29.9659 30.558C29.948 30.29 29.948 30.0028 30.0378 29.7347C30.1994 29.2943 30.4868 28.9114 30.8281 28.6051C31.4208 28.069 32.1033 27.6669 32.8757 27.4563C33.4325 27.3031 34.0072 27.2457 34.564 27.4754C35.2466 27.7626 35.6237 28.6817 35.4262 29.2369C35.2825 29.6581 35.049 29.7156 34.6898 29.6007C34.4024 29.505 34.2766 29.2369 34.2048 28.9306C34.1868 28.854 34.1868 28.8157 34.097 28.8731C33.8995 28.988 33.7558 29.1603 33.7378 29.4092C33.7198 29.6964 33.8456 29.9262 34.0611 30.0602C34.4742 30.3283 34.9053 30.4048 35.3902 30.2708C35.8572 30.1368 36.2703 29.6198 36.3063 29.1029C36.3422 28.471 36.1087 27.9732 35.7315 27.5329C35.3184 27.0542 34.7796 26.767 34.2048 26.5755C33.648 26.3841 33.0912 26.2883 32.5164 26.4032C32.0854 26.4798 32.1033 26.3266 32.0494 26.0012C32.0494 25.982 32.0494 25.9437 32.0494 25.9246C32.0315 25.8288 32.0494 25.8097 32.1393 25.7905C32.4626 25.7331 32.7679 25.6374 33.0912 25.5991C33.3427 25.5608 33.5941 25.465 33.8456 25.5991C33.9713 25.6565 34.115 25.714 34.2587 25.7522C34.8694 25.982 35.498 26.0777 36.1267 26.1543C36.3422 26.1735 36.5757 26.1543 36.8092 26.1543C36.2883 25.982 35.7674 25.8097 35.2466 25.5799C34.9412 25.4459 34.6538 25.3119 34.4203 25.063C34.2407 24.8715 34.2048 24.6609 34.3485 24.4886C34.4383 24.3928 34.564 24.3354 34.7077 24.3354C35.3184 24.3163 35.8932 24.5269 36.4859 24.5843C37.0606 24.6226 37.6174 24.6992 38.1922 24.7183C38.1204 24.6992 38.0844 24.6418 38.0126 24.6226C37.3121 24.3928 36.6475 24.0865 36.0369 23.6653C35.8034 23.5121 35.6058 23.3398 35.4621 23.0717C35.3004 22.7654 35.516 22.4973 35.7495 22.4399C36.1446 22.3059 36.5218 22.3825 36.899 22.4782C37.3301 22.5739 37.7611 22.6697 38.2102 22.7463C38.6592 22.8228 39.0903 22.9377 39.5213 22.976C39.5034 22.9569 39.4854 22.9377 39.4675 22.9377C38.8568 22.7271 38.2641 22.4782 37.6713 22.191C37.3839 22.0378 37.0966 21.8847 36.899 21.6166C36.6835 21.3486 36.7553 21.0805 37.0247 20.9465C37.1864 20.8699 37.348 20.8316 37.5276 20.8125C37.9408 20.7933 38.3539 20.8699 38.749 20.9082C39.0543 20.9465 39.3597 20.9656 39.665 21.0231C39.8985 21.0614 40.15 21.0614 40.4014 21.0997C40.2398 21.0231 40.0961 20.9656 39.9345 20.9082C39.0364 20.5636 38.1563 20.2189 37.3121 19.7403C36.9708 19.5488 36.6296 19.319 36.3961 18.9744C36.2165 18.6872 36.2344 18.4191 36.45 18.2085C36.5757 18.0745 36.7373 18.0171 36.899 17.9596C37.2223 17.8639 37.5456 17.8639 37.8689 17.883C38.6951 17.883 39.5034 17.9405 40.3116 18.0362C40.4014 18.0362 40.4733 18.0362 40.5631 18.0362C39.6291 17.6916 38.6951 17.3469 37.815 16.9066C37.3839 16.696 36.9888 16.4279 36.7373 15.9875C36.414 15.4323 36.5398 14.8196 37.0427 14.475C37.2762 14.3218 37.5456 14.2261 37.833 14.2261C38.6772 14.2261 39.5213 14.3409 40.3655 14.4941C40.5811 14.5324 40.8146 14.5516 41.048 14.5898C40.599 14.3409 40.15 14.1303 39.7189 13.8814C39.2699 13.6325 38.8388 13.3645 38.4976 12.9433C38.1383 12.5029 38.2102 12.1391 38.6592 11.8519C38.9466 11.6604 39.2699 11.5839 39.6111 11.5647C40.3476 11.5264 41.1019 11.5264 41.8204 11.6987C41.8743 11.7179 41.9282 11.7179 42 11.6796C41.7485 11.4307 41.4073 11.3158 41.084 11.2201ZM37.2762 12.5795C37.2043 12.5795 37.1325 12.5603 37.0786 12.5029L34.8873 14.609C34.9233 14.6664 34.9412 14.7239 34.9412 14.8005C34.9412 14.9536 34.8514 15.0877 34.7077 15.1451L35.4621 20.9465C35.6417 20.9656 35.7854 21.1188 35.7854 21.3103C35.7854 21.5017 35.6417 21.674 35.4441 21.674C35.3364 21.674 35.2466 21.6166 35.1747 21.54L31.2771 23.7419C31.2771 23.7802 31.2951 23.7993 31.2951 23.8376C31.2951 24.0291 31.1514 24.2014 30.9538 24.2014C30.7742 24.2014 30.6305 24.0482 30.6125 23.8759L26.3198 23.3206C26.3018 23.3589 26.2839 23.3972 26.2659 23.4164L29.7324 27.5329C29.7863 27.4946 29.8402 27.4754 29.9121 27.4754C30.0917 27.4754 30.2533 27.6286 30.2533 27.8392C30.2533 28.0307 30.1096 28.203 29.9121 28.203C29.7324 28.203 29.5708 28.0498 29.5708 27.8392C29.5708 27.7626 29.5888 27.686 29.6426 27.6286L26.1761 23.5121C26.1222 23.5504 26.0683 23.5695 25.9965 23.5695C25.9785 23.5695 25.9606 23.5695 25.9606 23.5695L24.38 28.471C24.4877 28.5285 24.5416 28.6434 24.5416 28.7774C24.5416 28.9689 24.3979 29.1412 24.2004 29.1412C24.0208 29.1412 23.8591 28.988 23.8591 28.7774C23.8591 28.5859 24.0028 28.4136 24.2004 28.4136C24.2183 28.4136 24.2363 28.4136 24.2363 28.4136L25.8169 23.5121C25.763 23.4738 25.7271 23.4355 25.6912 23.3781L20.8416 25.1013C20.8416 25.1204 20.8416 25.1204 20.8416 25.1396C20.8416 25.331 20.6979 25.5033 20.5003 25.5033C20.3207 25.5033 20.1591 25.3502 20.1591 25.1396C20.1591 24.9481 20.3028 24.7758 20.5003 24.7758C20.6261 24.7758 20.7338 24.8524 20.7877 24.9481L25.6373 23.2249C25.6373 23.2249 25.6373 23.2249 25.6373 23.2058L15.7226 22.0187C15.6867 22.1719 15.543 22.2676 15.3993 22.2676C15.2197 22.2676 15.0581 22.1144 15.0581 21.9038C15.0581 21.8272 15.076 21.7698 15.112 21.7123L11.2682 17.5767C11.2144 17.615 11.1605 17.6341 11.1066 17.6341L10.5857 21.5783C10.7114 21.6358 10.8192 21.7698 10.8192 21.923C10.8192 22.1144 10.6755 22.2867 10.4779 22.2867C10.2983 22.2867 10.1367 22.1336 10.1367 21.923C10.1367 21.7315 10.2804 21.5783 10.46 21.5592L10.9629 17.615C10.8911 17.5767 10.8192 17.5384 10.7833 17.4618L8.32259 18.3426C8.32259 18.3617 8.32259 18.3809 8.32259 18.3809C8.32259 18.5723 8.1789 18.7446 7.98133 18.7446C7.80172 18.7446 7.64007 18.5915 7.64007 18.3809C7.64007 18.1894 7.78376 18.0171 7.98133 18.0171C8.10706 18.0171 8.21483 18.0937 8.26871 18.1894L10.7294 17.3087C10.7294 17.2895 10.7294 17.2704 10.7294 17.2704C10.7294 17.1555 10.7833 17.0597 10.8551 16.9832L9.95707 15.0877C9.92115 15.0877 9.90319 15.1068 9.86726 15.1068C9.68765 15.1068 9.526 14.9536 9.526 14.743C9.526 14.5324 9.66969 14.3792 9.86726 14.3792C10.0469 14.3792 10.2085 14.5324 10.2085 14.743C10.2085 14.8579 10.1546 14.9536 10.0828 15.0302L10.9809 16.9257C11.0168 16.9257 11.0347 16.9066 11.0707 16.9066C11.1246 16.9066 11.1784 16.9257 11.2323 16.9449L15.2736 11.737C15.2556 11.7179 15.2556 11.6987 15.2377 11.6796L13.1003 12.3497C13.1003 12.3689 13.1003 12.3689 13.1003 12.388C13.1003 12.5795 12.9566 12.7518 12.759 12.7518C12.5615 12.7518 12.4178 12.5986 12.4178 12.388C12.4178 12.1965 12.5615 12.0242 12.759 12.0242C12.8848 12.0242 12.9925 12.1008 13.0644 12.2157L15.2018 11.5456C15.2018 11.5264 15.2018 11.5264 15.2018 11.5073C15.2018 11.4115 15.2377 11.3158 15.3095 11.2584L12.7411 7.12272C12.7051 7.14187 12.6513 7.14187 12.6153 7.14187C12.4357 7.14187 12.2741 6.9887 12.2741 6.77808C12.2741 6.58662 12.4178 6.4143 12.6153 6.4143C12.6872 6.4143 12.759 6.43345 12.8129 6.47174L15.094 4.11672C15.0581 4.05928 15.0401 4.00184 15.0401 3.92526C15.0401 3.81038 15.076 3.71465 15.1479 3.65721L14.6809 2.83391C14.627 2.8722 14.5911 2.8722 14.5552 2.8722C14.3755 2.8722 14.2139 2.71903 14.2139 2.50842C14.2139 2.31695 14.3576 2.14464 14.5552 2.14464C14.7348 2.14464 14.8964 2.29781 14.8964 2.50842C14.8964 2.60415 14.8605 2.69988 14.7887 2.77647L15.2556 3.59977C15.2916 3.58062 15.3275 3.58062 15.3634 3.58062C15.3814 3.58062 15.3814 3.58062 15.3993 3.58062L15.7406 2.16378C15.6328 2.10634 15.543 1.99146 15.543 1.83829C15.543 1.64683 15.6867 1.47451 15.8843 1.47451C16.0819 1.47451 16.2256 1.62768 16.2256 1.83829C16.2256 2.0489 16.0819 2.20208 15.8843 2.20208H15.8663L15.543 3.63806C15.5969 3.67635 15.6508 3.71465 15.6688 3.77209L16.7285 3.4466C16.7285 3.42745 16.7285 3.42745 16.7285 3.4083C16.7285 3.21684 16.8722 3.04452 17.0697 3.04452C17.2494 3.04452 17.411 3.19769 17.411 3.4083C17.411 3.61892 17.2673 3.77209 17.0697 3.77209C16.944 3.77209 16.8183 3.6955 16.7644 3.58062L15.7047 3.90611C15.7047 3.92526 15.7047 3.92526 15.7047 3.94441C15.7047 4.02099 15.6867 4.09758 15.6328 4.15502L16.2615 4.95917C16.3154 4.94002 16.3692 4.92088 16.4231 4.92088C16.6027 4.92088 16.7644 5.07405 16.7644 5.28466C16.7644 5.47612 16.6207 5.64844 16.4231 5.64844C16.2435 5.64844 16.0819 5.49527 16.0819 5.28466C16.0819 5.20807 16.1178 5.11234 16.1537 5.0549L15.5251 4.25075C15.4712 4.28904 15.4173 4.30819 15.3455 4.30819C15.2736 4.30819 15.2018 4.28904 15.1479 4.25075L12.9027 6.60577C12.9386 6.66321 12.9566 6.72064 12.9566 6.79723C12.9566 6.89296 12.9207 6.9887 12.8488 7.04613L15.3993 11.2009C15.4353 11.1818 15.4891 11.1818 15.5251 11.1818C15.543 11.1818 15.543 11.1818 15.561 11.1818L16.1178 9.32457C16.01 9.26713 15.9382 9.15225 15.9382 9.01822C15.9382 8.82676 16.0819 8.65444 16.2794 8.65444C16.4591 8.65444 16.6207 8.80761 16.6207 9.01822C16.6207 9.20969 16.477 9.38201 16.2794 9.38201C16.2615 9.38201 16.2615 9.38201 16.2435 9.38201L15.6867 11.2392C15.7586 11.2775 15.8124 11.3349 15.8304 11.4115L17.7523 11.0286C17.7523 10.8371 17.9139 10.6648 18.0935 10.6648C18.2731 10.6648 18.4348 10.818 18.4348 11.0286C18.4348 11.2201 18.2911 11.3924 18.0935 11.3924C17.9498 11.3924 17.8241 11.2967 17.7882 11.1626L15.8663 11.5456C15.8663 11.6604 15.8124 11.7562 15.7226 11.8328L16.4231 13.4411C16.4411 13.4411 16.477 13.4219 16.495 13.4219C16.6746 13.4219 16.8362 13.5751 16.8362 13.7857C16.8362 13.9963 16.6926 14.1495 16.495 14.1495C16.2974 14.1495 16.1717 13.9772 16.1717 13.7857C16.1717 13.6708 16.2256 13.5559 16.3154 13.4985L15.6149 11.8902C15.5969 11.8902 15.561 11.9093 15.543 11.9093C15.4891 11.9093 15.4353 11.8902 15.3814 11.871L11.3401 17.0597C11.376 17.098 11.394 17.1555 11.4119 17.2129L14.1061 17.1746C14.142 17.0023 14.2678 16.8874 14.4294 16.8874C14.609 16.8874 14.7707 17.0406 14.7707 17.2512C14.7707 17.4427 14.627 17.615 14.4294 17.615C14.2678 17.615 14.1241 17.5001 14.1061 17.3278L11.4119 17.3661C11.4119 17.4044 11.394 17.4618 11.3581 17.5001L15.2377 21.6166C15.2916 21.5783 15.3634 21.5592 15.4173 21.5592C15.5969 21.5592 15.7406 21.7123 15.7586 21.8847L25.6732 23.0717C25.6912 23.0334 25.7091 22.9952 25.7271 22.9569L23.3203 19.836C23.2664 19.8551 23.2125 19.8743 23.1586 19.8743C22.979 19.8743 22.8174 19.7211 22.8174 19.5105C22.8174 19.2999 22.961 19.1467 23.1586 19.1467C23.3382 19.1467 23.4999 19.2999 23.4999 19.5105C23.4999 19.6062 23.464 19.6828 23.428 19.7403L25.8348 22.8611C25.8887 22.842 25.9426 22.8228 25.9965 22.8228C26.0145 22.8228 26.0145 22.8228 26.0324 22.8228L27.0203 19.4339C26.9125 19.3765 26.8407 19.2616 26.8407 19.1084C26.8407 18.917 26.9844 18.7446 27.1819 18.7446C27.3616 18.7446 27.5232 18.8978 27.5232 19.1084C27.5232 19.319 27.3795 19.4722 27.1819 19.4722C27.164 19.4722 27.164 19.4722 27.146 19.4722L26.1581 22.8611C26.1941 22.8803 26.212 22.8994 26.248 22.9377L29.2116 20.9848C29.1936 20.9465 29.1936 20.9082 29.1936 20.8699C29.1936 20.6784 29.3373 20.5061 29.5349 20.5061C29.7145 20.5061 29.8761 20.6593 29.8761 20.8699C29.8761 21.0614 29.7324 21.2337 29.5349 21.2337C29.4451 21.2337 29.3553 21.1954 29.2834 21.1188L26.3198 23.0717C26.3378 23.11 26.3378 23.1292 26.3378 23.1675L30.6305 23.7227C30.6844 23.5887 30.8101 23.4738 30.9538 23.4738C31.0616 23.4738 31.1514 23.5313 31.2232 23.6078L35.1208 21.406C35.1208 21.3677 35.1029 21.3486 35.1029 21.3103C35.1029 21.1571 35.1927 21.0231 35.3364 20.9656L34.582 15.1642C34.4024 15.1451 34.2587 14.9919 34.2587 14.8005C34.2587 14.609 34.4024 14.4367 34.5999 14.4367C34.6718 14.4367 34.7436 14.4558 34.7975 14.5133L36.9888 12.4263C36.9529 12.3689 36.9349 12.3114 36.9349 12.2348C36.9349 12.0434 37.0786 11.871 37.2762 11.871C37.4558 11.871 37.6174 12.0242 37.6174 12.2348C37.6174 12.4072 37.4738 12.5795 37.2762 12.5795Z" fill="#C9B44A"/>
<path d="M53.2274 23.6C53.4034 23.6 53.5554 23.612 53.6834 23.636C53.8114 23.66 53.9234 23.708 54.0194 23.78C54.1154 23.844 54.1994 23.936 54.2714 24.056C54.3514 24.168 54.4314 24.32 54.5114 24.512L57.0074 30.272C57.0394 30.344 57.0954 30.38 57.1754 30.38H57.3194C57.3994 30.38 57.4554 30.344 57.4874 30.272L59.9834 24.512C60.0634 24.32 60.1394 24.168 60.2114 24.056C60.2914 23.936 60.3794 23.844 60.4754 23.78C60.5714 23.708 60.6794 23.66 60.7994 23.636C60.9274 23.612 61.0794 23.6 61.2554 23.6H62.5394C62.9554 23.6 63.2354 23.696 63.3794 23.888C63.5234 24.072 63.5954 24.392 63.5954 24.848V31.736C63.5954 31.912 63.5034 32 63.3194 32H62.0954C61.9194 32 61.8314 31.912 61.8314 31.736V25.472C61.8314 25.392 61.7994 25.352 61.7354 25.352H61.6274C61.5474 25.352 61.4954 25.384 61.4714 25.448L59.0474 30.824C58.9514 31.04 58.8514 31.224 58.7474 31.376C58.6514 31.52 58.5434 31.64 58.4234 31.736C58.3114 31.832 58.1794 31.9 58.0274 31.94C57.8834 31.98 57.7114 32 57.5114 32H56.9354C56.7354 32 56.5594 31.98 56.4074 31.94C56.2634 31.9 56.1314 31.832 56.0114 31.736C55.8994 31.64 55.7914 31.52 55.6874 31.376C55.5914 31.224 55.4954 31.04 55.3994 30.824L52.9754 25.448C52.9514 25.384 52.8994 25.352 52.8194 25.352H52.7114C52.6474 25.352 52.6154 25.392 52.6154 25.472V31.736C52.6154 31.912 52.5274 32 52.3514 32H51.1274C50.9434 32 50.8514 31.912 50.8514 31.736V24.848C50.8514 24.392 50.9234 24.072 51.0674 23.888C51.2114 23.696 51.4954 23.6 51.9194 23.6H53.2274ZM74.0874 23.6C74.2714 23.6 74.3634 23.688 74.3634 23.864V25.004C74.3634 25.18 74.2714 25.268 74.0874 25.268H68.8434C68.5314 25.268 68.2714 25.296 68.0634 25.352C67.8634 25.4 67.6994 25.488 67.5714 25.616C67.4514 25.736 67.3674 25.904 67.3194 26.12C67.2714 26.328 67.2474 26.588 67.2474 26.9V27.02H74.0274C74.2034 27.02 74.2914 27.108 74.2914 27.284V28.232C74.2914 28.408 74.2034 28.496 74.0274 28.496H67.2474V28.7C67.2474 29.012 67.2714 29.276 67.3194 29.492C67.3674 29.7 67.4514 29.868 67.5714 29.996C67.6994 30.116 67.8634 30.204 68.0634 30.26C68.2714 30.308 68.5314 30.332 68.8434 30.332H74.0874C74.2714 30.332 74.3634 30.42 74.3634 30.596V31.736C74.3634 31.912 74.2714 32 74.0874 32H68.8074C68.1994 32 67.6834 31.944 67.2594 31.832C66.8354 31.72 66.4874 31.54 66.2154 31.292C65.9514 31.036 65.7554 30.708 65.6274 30.308C65.5074 29.9 65.4474 29.408 65.4474 28.832V26.768C65.4474 26.192 65.5074 25.704 65.6274 25.304C65.7554 24.904 65.9514 24.58 66.2154 24.332C66.4874 24.076 66.8354 23.892 67.2594 23.78C67.6834 23.66 68.1994 23.6 68.8074 23.6H74.0874ZM84.4387 23.6C84.6147 23.6 84.7027 23.688 84.7027 23.864V25.004C84.7027 25.18 84.6147 25.268 84.4387 25.268H78.4267C78.1947 25.268 78.0307 25.328 77.9347 25.448C77.8387 25.568 77.7907 25.732 77.7907 25.94V26.348C77.7907 26.796 77.9987 27.02 78.4147 27.02H82.9147C83.6107 27.02 84.1347 27.2 84.4867 27.56C84.8387 27.912 85.0147 28.42 85.0147 29.084V30.044C85.0147 30.628 84.8427 31.1 84.4987 31.46C84.1547 31.82 83.6187 32 82.8907 32H76.2427C76.0587 32 75.9667 31.912 75.9667 31.736V30.596C75.9667 30.42 76.0587 30.332 76.2427 30.332H82.5427C82.7747 30.332 82.9387 30.272 83.0347 30.152C83.1307 30.032 83.1787 29.868 83.1787 29.66V29.168C83.1787 28.72 82.9707 28.496 82.5547 28.496H78.0547C77.3587 28.496 76.8347 28.32 76.4827 27.968C76.1307 27.608 75.9547 27.096 75.9547 26.432V25.556C75.9547 24.972 76.1267 24.5 76.4707 24.14C76.8147 23.78 77.3507 23.6 78.0787 23.6H84.4387ZM95.2918 23.6C95.4758 23.6 95.5678 23.688 95.5678 23.864V25.004C95.5678 25.18 95.4758 25.268 95.2918 25.268H90.0478C89.7358 25.268 89.4758 25.296 89.2678 25.352C89.0678 25.4 88.9038 25.488 88.7758 25.616C88.6558 25.736 88.5718 25.904 88.5238 26.12C88.4758 26.328 88.4518 26.588 88.4518 26.9V27.02H95.2318C95.4078 27.02 95.4958 27.108 95.4958 27.284V28.232C95.4958 28.408 95.4078 28.496 95.2318 28.496H88.4518V28.7C88.4518 29.012 88.4758 29.276 88.5238 29.492C88.5718 29.7 88.6558 29.868 88.7758 29.996C88.9038 30.116 89.0678 30.204 89.2678 30.26C89.4758 30.308 89.7358 30.332 90.0478 30.332H95.2918C95.4758 30.332 95.5678 30.42 95.5678 30.596V31.736C95.5678 31.912 95.4758 32 95.2918 32H90.0118C89.4038 32 88.8878 31.944 88.4638 31.832C88.0398 31.72 87.6918 31.54 87.4198 31.292C87.1558 31.036 86.9598 30.708 86.8318 30.308C86.7118 29.9 86.6518 29.408 86.6518 28.832V26.768C86.6518 26.192 86.7118 25.704 86.8318 25.304C86.9598 24.904 87.1558 24.58 87.4198 24.332C87.6918 24.076 88.0398 23.892 88.4638 23.78C88.8878 23.66 89.4038 23.6 90.0118 23.6H95.2918ZM102.859 23.6C102.939 23.6 102.995 23.652 103.027 23.756L104.971 30.212C104.979 30.268 105.011 30.296 105.067 30.296H105.127C105.175 30.296 105.207 30.268 105.223 30.212L107.167 24.296C107.255 24.024 107.371 23.84 107.515 23.744C107.659 23.648 107.839 23.6 108.055 23.6H109.243C109.507 23.6 109.707 23.652 109.843 23.756C109.987 23.86 110.103 24.04 110.191 24.296L112.183 30.212C112.199 30.268 112.231 30.296 112.279 30.296H112.351C112.399 30.296 112.431 30.268 112.447 30.212L114.343 23.756C114.359 23.692 114.383 23.652 114.415 23.636C114.455 23.612 114.495 23.6 114.535 23.6H116.155C116.219 23.6 116.255 23.628 116.263 23.684C116.279 23.74 116.275 23.804 116.251 23.876L113.947 31.088C113.835 31.448 113.711 31.692 113.575 31.82C113.439 31.94 113.255 32 113.023 32H111.619C111.387 32 111.203 31.936 111.067 31.808C110.939 31.68 110.815 31.44 110.695 31.088L108.811 25.388C108.803 25.332 108.771 25.304 108.715 25.304H108.667C108.611 25.304 108.579 25.332 108.571 25.388L106.663 31.088C106.543 31.44 106.415 31.68 106.279 31.808C106.151 31.936 105.971 32 105.739 32H104.371C104.235 32 104.115 31.988 104.011 31.964C103.915 31.94 103.827 31.896 103.747 31.832C103.667 31.76 103.595 31.664 103.531 31.544C103.475 31.424 103.419 31.272 103.363 31.088L101.155 23.876C101.131 23.796 101.123 23.732 101.131 23.684C101.147 23.628 101.187 23.6 101.251 23.6H102.859ZM121.679 23.6C121.983 23.6 122.239 23.664 122.447 23.792C122.655 23.912 122.859 24.152 123.059 24.512L127.031 31.724C127.071 31.804 127.079 31.872 127.055 31.928C127.039 31.976 126.983 32 126.887 32H125.363C125.227 32 125.135 31.948 125.087 31.844L124.235 30.296H118.595L117.767 31.844C117.711 31.948 117.619 32 117.491 32H115.931C115.827 32 115.763 31.976 115.739 31.928C115.723 31.872 115.735 31.804 115.775 31.724L119.711 24.512C119.911 24.152 120.107 23.912 120.299 23.792C120.491 23.664 120.715 23.6 120.971 23.6H121.679ZM119.351 28.904H123.479L121.571 25.388C121.539 25.332 121.495 25.304 121.439 25.304H121.367C121.311 25.304 121.267 25.332 121.235 25.388L119.351 28.904ZM129.474 23.6C129.65 23.6 129.738 23.688 129.738 23.864V28.652C129.738 28.972 129.762 29.24 129.81 29.456C129.866 29.664 129.954 29.832 130.074 29.96C130.194 30.08 130.354 30.168 130.554 30.224C130.762 30.272 131.022 30.296 131.334 30.296H136.194C136.37 30.296 136.458 30.384 136.458 30.56V31.736C136.458 31.912 136.37 32 136.194 32H131.262C130.654 32 130.138 31.944 129.714 31.832C129.29 31.72 128.942 31.54 128.67 31.292C128.406 31.036 128.21 30.708 128.082 30.308C127.962 29.9 127.902 29.408 127.902 28.832V23.864C127.902 23.688 127.994 23.6 128.178 23.6H129.474ZM139.279 23.6C139.455 23.6 139.543 23.688 139.543 23.864V28.652C139.543 28.972 139.567 29.24 139.615 29.456C139.671 29.664 139.759 29.832 139.879 29.96C139.999 30.08 140.159 30.168 140.359 30.224C140.567 30.272 140.827 30.296 141.139 30.296H145.999C146.175 30.296 146.263 30.384 146.263 30.56V31.736C146.263 31.912 146.175 32 145.999 32H141.067C140.459 32 139.943 31.944 139.519 31.832C139.095 31.72 138.747 31.54 138.475 31.292C138.211 31.036 138.015 30.708 137.887 30.308C137.767 29.9 137.707 29.408 137.707 28.832V23.864C137.707 23.688 137.799 23.6 137.983 23.6H139.279ZM156.245 23.6C156.429 23.6 156.521 23.688 156.521 23.864V25.004C156.521 25.18 156.429 25.268 156.245 25.268H151.001C150.689 25.268 150.429 25.296 150.221 25.352C150.021 25.4 149.857 25.488 149.729 25.616C149.609 25.736 149.525 25.904 149.477 26.12C149.429 26.328 149.405 26.588 149.405 26.9V27.02H156.185C156.361 27.02 156.449 27.108 156.449 27.284V28.232C156.449 28.408 156.361 28.496 156.185 28.496H149.405V28.7C149.405 29.012 149.429 29.276 149.477 29.492C149.525 29.7 149.609 29.868 149.729 29.996C149.857 30.116 150.021 30.204 150.221 30.26C150.429 30.308 150.689 30.332 151.001 30.332H156.245C156.429 30.332 156.521 30.42 156.521 30.596V31.736C156.521 31.912 156.429 32 156.245 32H150.965C150.357 32 149.841 31.944 149.417 31.832C148.993 31.72 148.645 31.54 148.373 31.292C148.109 31.036 147.913 30.708 147.785 30.308C147.665 29.9 147.605 29.408 147.605 28.832V26.768C147.605 26.192 147.665 25.704 147.785 25.304C147.913 24.904 148.109 24.58 148.373 24.332C148.645 24.076 148.993 23.892 149.417 23.78C149.841 23.66 150.357 23.6 150.965 23.6H156.245ZM167.388 23.6C167.572 23.6 167.664 23.688 167.664 23.864V25.04C167.664 25.224 167.572 25.316 167.388 25.316H163.62V31.736C163.62 31.912 163.532 32 163.356 32H162.048C161.872 32 161.784 31.912 161.784 31.736V25.316H158.016C157.832 25.316 157.74 25.224 157.74 25.04V23.864C157.74 23.688 157.832 23.6 158.016 23.6H167.388Z" fill="#C9B44A"/>
</svg>
