<svg width="14" height="15" viewBox="0 0 14 15" fill="none" xmlns="http://www.w3.org/2000/svg">
<g clip-path="url(#clip0)">
<path d="M0 14.2177H6.36362V7.854H0V14.2177ZM1.27263 9.12684H5.09085V12.9352H1.27263V9.12684Z" fill="#C0C0C0"/>
<path d="M3.81811 10.3994H2.54541V11.6723H3.81811V10.3994Z" fill="#C0C0C0"/>
<path d="M11.4545 12.9448H10.1815V14.2176H11.4545V12.9448Z" fill="#C0C0C0"/>
<path d="M14 12.9448H12.7271V14.2176H14V12.9448Z" fill="#C0C0C0"/>
<path d="M12.7272 9.12684H11.4546V7.854H7.63623V14.2177H8.90906V10.3995H10.1816V11.6723H13.9999V7.854H12.7272V9.12684Z" fill="#C0C0C0"/>
<path d="M0 6.58153H6.36362V0.217773H0V6.58153ZM1.27263 1.4904H5.09085V5.30862H1.27263V1.4904Z" fill="#C0C0C0"/>
<path d="M3.81811 2.76318H2.54541V4.03598H3.81811V2.76318Z" fill="#C0C0C0"/>
<path d="M7.63623 0.217773V6.58153H14V0.217773H7.63623ZM12.7272 5.30862H8.90907V1.4904H12.7272V5.30862Z" fill="#C0C0C0"/>
<path d="M11.4545 2.76318H10.1815V4.03598H11.4545V2.76318Z" fill="#C0C0C0"/>
</g>
<defs>
<clipPath id="clip0">
<rect width="14" height="14" fill="white" transform="translate(0 0.217773)"/>
</clipPath>
</defs>
</svg>
