<svg width="120" height="120" viewBox="0 0 120 120" fill="none" xmlns="http://www.w3.org/2000/svg">
<path d="M107.439 89.2227C105.362 87.6774 102.425 88.1089 100.88 90.1857C100.03 91.3281 99.121 92.4486 98.1771 93.5162C96.4627 95.4557 96.6448 98.4182 98.5843 100.133C99.4763 100.921 100.584 101.308 101.687 101.308C102.984 101.308 104.275 100.773 105.201 99.7255C106.319 98.4613 107.396 97.1342 108.402 95.7812C109.947 93.7044 109.516 90.7677 107.439 89.2227Z" fill="#ADADAD"/>
<path d="M115.278 67.2391C112.75 66.6885 110.252 68.2928 109.701 70.8222C109.398 72.2137 109.032 73.6077 108.612 74.9662C107.848 77.4398 109.233 80.0643 111.707 80.8286C112.168 80.9709 112.634 81.0386 113.092 81.0386C115.094 81.0386 116.947 79.7463 117.569 77.7334C118.068 76.1214 118.502 74.467 118.862 72.8163C119.412 70.2869 117.808 67.7899 115.278 67.2391Z" fill="#ADADAD"/>
<path d="M84.8763 104.234C83.6318 104.929 82.3432 105.578 81.0466 106.164C78.6872 107.229 77.6383 110.006 78.7038 112.365C79.4866 114.099 81.1926 115.124 82.9786 115.124C83.6236 115.124 84.2791 114.991 84.9051 114.708C86.4433 114.013 87.971 113.243 89.4466 112.419C91.7072 111.158 92.5165 108.302 91.2541 106.042C89.9925 103.782 87.1368 102.972 84.8763 104.234Z" fill="#ADADAD"/>
<path d="M55.3125 22.5V58.0584L38.1237 75.247C36.2932 77.0777 36.2932 80.0456 38.1237 81.8761C39.0392 82.7916 40.2385 83.2491 41.4385 83.2491C42.638 83.2491 43.8378 82.7913 44.7532 81.8761L63.3148 63.3145C64.1937 62.4356 64.6875 61.2431 64.6875 60V22.5C64.6875 19.9111 62.5889 17.8125 60 17.8125C57.4111 17.8125 55.3125 19.9111 55.3125 22.5Z" fill="#ADADAD"/>
<path d="M115.312 10.0781C112.724 10.0781 110.625 12.1767 110.625 14.7656V27.7819C99.7144 10.6706 80.6604 0 60 0C43.9734 0 28.9062 6.24117 17.5734 17.5734C6.24117 28.9062 0 43.9734 0 60C0 76.0266 6.24117 91.0938 17.5734 102.427C28.9062 113.759 43.9734 120 60 120C60.0396 120 60.0778 119.995 60.1172 119.994C60.1566 119.995 60.1948 120 60.2344 120C61.9238 120 63.6298 119.929 65.3055 119.789C67.8853 119.572 69.8016 117.306 69.5857 114.726C69.3694 112.147 67.106 110.229 64.5232 110.446C63.1066 110.565 61.6638 110.625 60.2344 110.625C60.1948 110.625 60.1566 110.63 60.1172 110.631C60.0778 110.63 60.0396 110.625 60 110.625C32.0852 110.625 9.375 87.9148 9.375 60C9.375 32.0852 32.0852 9.375 60 9.375C77.9902 9.375 94.5368 18.964 103.579 34.2188H90.6898C88.1009 34.2188 86.0023 36.3173 86.0023 38.9062C86.0023 41.4952 88.1009 43.5938 90.6898 43.5938H105C107.855 43.5938 110.525 42.7915 112.799 41.4016C112.946 41.3182 113.086 41.2284 113.22 41.1316C117.3 38.4478 120 33.8313 120 28.5938V14.7656C120 12.1767 117.901 10.0781 115.312 10.0781Z" fill="#ADADAD"/>
</svg>
